<?xml version="1.0" encoding="UTF-8" standalone="no"?><!DOCTYPE svg PUBLIC "-//W3C//DTD SVG 1.1//EN" "http://www.w3.org/Graphics/SVG/1.1/DTD/svg11.dtd"><svg width="100%" height="100%" viewBox="0 0 1674 499" version="1.1" xmlns="http://www.w3.org/2000/svg" xmlns:xlink="http://www.w3.org/1999/xlink" xml:space="preserve" xmlns:serif="http://www.serif.com/" style="fill-rule:evenodd;clip-rule:evenodd;stroke-linejoin:round;stroke-miterlimit:2;"><g id="kaken_03.svg"><g id="salar"><path d="M878.009,107.664l-0.492,-25.3l41.292,-0.102l0.533,25.525l-41.333,-0.123Z" style="fill:#03a4d0;fill-rule:nonzero;"/><path d="M877.947,46.095l-0.43,36.269l41.292,-0.102l0.984,-36.167l-41.846,-0Z" style="fill:#03a4d0;fill-rule:nonzero;"/><path d="M877.619,9.743l0.328,36.352l41.846,-0l-0.123,-36.536l-42.051,0.184Z" style="fill:#03a4d0;fill-rule:nonzero;"/><path d="M907.205,108.833l-0.328,30.344l-30.037,0.103l-0.82,-30.447l31.185,0Z" style="fill:#03a4d0;fill-rule:nonzero;"/><path d="M903.391,185.37l-23.393,-0.205l-0,-26.961l23.721,-0l-0.328,27.166Z" style="fill:#03a4d0;fill-rule:nonzero;"/><path d="M1153.85,5.54l0.164,36.249l-25.177,0.103l0.349,-36.577l24.664,0.225Z" style="fill:#03a4d0;fill-rule:nonzero;"/><path d="M1180.42,6.75l26.982,-0.615l1.148,55.644l-28.848,0l0.718,-55.029Z" style="fill:#03a4d0;fill-rule:nonzero;"/><path d="M1282.4,2.916l26.858,-0.02l0,38.75l-26.858,0.328l-0,-39.058Z" style="fill:#03a4d0;fill-rule:nonzero;"/><path d="M1334.17,41.892l-24.911,-0.246l0,-38.75l24.501,-0.226l0.41,39.222Z" style="fill:#03a4d0;fill-rule:nonzero;"/><path d="M1649.59,1.85l0.164,109.361l-58.843,12.897l-1.558,-121.848l60.237,-0.41Z" style="fill:#03a4d0;fill-rule:nonzero;"/></g><g id="infocenter"><path d="M548.817,448.215l-10.436,-79.161l-63.21,-6.848l-2.153,32.558l8.981,11.461l-4.162,31.779l70.98,10.211Z" style="fill:#fefad7;fill-rule:nonzero;"/></g><g id="it"><path d="M40.759,178.481l-10.251,121.048l218.58,19.457l12.793,-122.832l-221.122,-17.673Z" style="fill:#d86d2e;fill-rule:nonzero;"/></g><g id="studenthälsan"><path d="M531.697,262.501l-10.518,80.863l-67.474,-9.616l5.884,-42.318l-65.732,-9.882l-6.56,44.655l-42.339,-5.495l4.675,-44.122l-28.56,-3.383l3.916,-39.385l206.708,28.683Z" style="fill:#848321;fill-rule:nonzero;"/></g><g id="restricted"><path d="M1411.74,1.091l1.189,56.055l-78.115,0.348l-0.123,-56.075l77.049,-0.328Z" style="fill:#e52925;fill-rule:nonzero;"/><path d="M1178.25,63.809l0.061,-16.115l2.112,-40.944l-26.572,-1.21l0.164,36.249l7.976,7.053l0,8.263l0.082,-0l0,67.454l20.933,-0.533l1.005,-60.463l-5.761,0.246Z" style="fill:#e52925;fill-rule:nonzero;"/><path d="M1155.27,401.981l-29.811,-216.201l-266.617,46.644l35.756,217.062l260.672,-47.505Z" style="fill:#e52925;fill-rule:nonzero;"/><path d="M664.473,370.509l-13.327,94.313l81.047,11.604l19.293,-5.884l-17.837,-89.207l-69.176,-10.826Z" style="fill:#e52925;fill-rule:nonzero;"/><path d="M812.318,7.324l63.435,-1.968l0.267,103.477l-66.511,1.825l2.809,-103.334Z" style="fill:#e52925;fill-rule:nonzero;"/><path d="M364.313,347.895l-2.419,26.776l-111.781,-11.666l-6.336,47.054l233.403,27.351l3.219,-32.415l-7.381,-10.231l1.559,-31.677l-110.264,-15.192Z" style="fill:#e52925;fill-rule:nonzero;"/><path d="M29.975,299.919l-7.319,89.637l213.412,20.503l11.974,-89.945l-218.067,-20.195Z" style="fill:#e52925;fill-rule:nonzero;"/><path d="M1128,42.671l-1.292,80.658l35.367,1.23l-0.082,-75.717l-7.976,-7.053l-25.915,-0.799l-0.102,1.681Z" style="fill:#e52925;fill-rule:nonzero;"/></g><g id="väggar"><path d="M658.097,365.056l7.504,0.676l-14.291,101.243l-7.258,-0.082l14.045,-101.837Z" style="fill-rule:nonzero;"/><path d="M250.031,360.668l-6.684,-1.025l-7.525,52.959l7.074,0.41l7.135,-52.344Z" style="fill-rule:nonzero;"/><path d="M548.817,448.215l52.364,7.258l1.21,-5.146l-54.189,-7.525l0.615,5.413Z" style="fill-rule:nonzero;"/><path d="M531.697,262.501l38.197,2.399l-0.902,6.704l-38.156,-2.235l0.861,-6.868Z" style="fill-rule:nonzero;"/><path d="M817.464,187.666l-1.086,-26.53l-5.044,0.041l0.656,27.268l5.474,-0.779Z" style="fill-rule:nonzero;"/><path d="M812.154,123.206l4.675,-0l-0,21.445l-5.208,0.492l0.533,-21.937Z" style="fill-rule:nonzero;"/><path d="M810.965,243.29l-68.438,13.573l-0.82,-4.757l68.561,-13.347l0.697,4.531Z" style="fill-rule:nonzero;"/><path d="M811.088,248.457l0.41,-18.494l4.347,-0.266l0.553,12.363l42.441,-5.905l0.861,4.306l-48.612,7.996Z" style="fill-rule:nonzero;"/><path d="M810.268,238.759l1.558,-0.369l0.267,4.428l-1.128,0.472l-0.697,-4.531Z" style="fill-rule:nonzero;"/><path d="M842.744,166.261l-9.062,-0.287l0.492,21.795l5.064,-0.082l20.339,-0.472l-0.738,-22.286l-1.948,-0l0.923,19.518l-14.68,0l-0.39,-18.186Z" style="fill-rule:nonzero;"/><path d="M1307.93,167.327l78.505,-4.982l1.272,5.433l-80.269,4.962l0.492,-5.413Z" style="fill-rule:nonzero;"/><path d="M1283.8,170.444l-28.417,2.296l0.431,4.388l27.986,-1.989l-0,-4.695Z" style="fill-rule:nonzero;"/><path d="M1202.79,176.656l0.39,5.474l31.738,-3.772l-0.533,-3.834l-31.595,2.132Z" style="fill-rule:nonzero;"/><path d="M1126.52,188.425l57.428,-5.598l-0.492,-4.121l-57.202,5.987l0.266,3.732Z" style="fill-rule:nonzero;"/><path d="M588.08,267.176l-0.718,6.171l16.156,1.702l0.39,-6.254l-15.828,-1.619Z" style="fill-rule:nonzero;"/><path d="M621.356,271.112l0.225,6.684l14.004,0.123l-0.8,-6.581l-13.429,-0.226Z" style="fill-rule:nonzero;"/><path d="M622.319,249.031l-0.963,22.081l13.429,0.226l-0.636,-10.19l42.831,3.813l-0.021,-12.158l-54.64,-3.772Z" style="fill-rule:nonzero;"/><path d="M668.368,266.212l-0.369,-2.399l10.395,0l-0.102,3.076l-9.924,-0.677Z" style="fill-rule:nonzero;"/><path d="M748.206,149.49l63.948,-8.222" style="fill:none;fill-rule:nonzero;"/><path d="M810.719,112.401l-0,14.29" style="fill:none;fill-rule:nonzero;"/><path d="M813.917,193.427l0,32.969" style="fill:none;fill-rule:nonzero;"/><path d="M611.986,175.877l114.774,-22.04" style="fill:none;fill-rule:nonzero;"/><path d="M565.465,199.332l1.948,-18.329" style="fill:none;fill-rule:nonzero;"/><path d="M592.734,176.513l-25.321,4.49" style="fill:none;fill-rule:nonzero;"/><path d="M565.793,211.101l-1.394,55.788" style="fill:none;fill-rule:nonzero;"/><path d="M1424.3,343.876l-269.037,58.105" style="fill:none;fill-rule:nonzero;"/><path d="M1420.35,322.943l3.957,20.933" style="fill:none;fill-rule:nonzero;"/><path d="M1650.33,0.025l-838.357,8.099" style="fill:none;fill-rule:nonzero;"/><path d="M1127.44,135.569l-0.882,21.076" style="fill:none;fill-rule:nonzero;"/><path d="M1127.16,185.78l-0.164,-18.289" style="fill:none;fill-rule:nonzero;"/><path d="M2.788,297.561l-2.788,14.618l9.575,1.312l-4.08,70.53l-4.388,4.572l9.267,26.858l28.786,-6.909l0.943,-17.837l-17.468,-0.615l6.13,-89.126l-25.977,-3.403Z" style="fill-rule:nonzero;"/><path d="M176.303,421.623l0.984,-17.059l-137.184,-13.859l-0.943,17.837l137.143,13.081Z" style="fill-rule:nonzero;"/><path d="M172.612,419.511l8.858,6.376l467.072,59.643l114.303,-5.536l-108.664,-17.817l-409.153,-57.469l-9.083,4.367l-58.658,-4.511l-4.675,14.947Z" style="fill-rule:nonzero;"/><path d="M651.556,485.099l102.411,13.901l27.146,-4.203l-28.991,-24.152l-19.601,6.684l-80.965,7.77Z" style="fill-rule:nonzero;"/><path d="M752.122,470.645l142.268,-22.41l4.778,26.531l-118.055,20.031l-28.991,-24.152Z" style="fill-rule:nonzero;"/><path d="M1110.12,439.071l-210.952,35.695l-4.778,-26.531l209.333,-35.449l6.397,26.285Z" style="fill-rule:nonzero;"/></g><g id="dörrar"><circle cx="1297.97" cy="41.236" r="3.629" style="fill:#fcdccf;"/><ellipse cx="1323.27" cy="41.912" rx="4.06" ry="3.444" style="fill:#fcdccf;"/><ellipse cx="1129.84" cy="14.767" rx="4.716" ry="3.937" style="fill:#fcdccf;"/><ellipse cx="1209.05" cy="56.039" rx="5.413" ry="3.957" style="fill:#fcdccf;"/><ellipse cx="1195.06" cy="182.438" rx="7.073" ry="9.431" style="fill:#fcdccf;"/><ellipse cx="1246.42" cy="176.451" rx="7.791" ry="8.755" style="fill:#fcdccf;"/><ellipse cx="1297.58" cy="169.562" rx="9.534" ry="7.627" style="fill:#fcdccf;"/><ellipse cx="541.785" cy="388.06" rx="11.092" ry="6.704" style="fill:#fcdccf;"/><ellipse cx="921.352" cy="28.954" rx="7.442" ry="4.9" style="fill:#fcdccf;"/><ellipse cx="922.315" cy="64.158" rx="8.427" ry="5.105" style="fill:#fcdccf;"/><ellipse cx="919.404" cy="98.52" rx="6.458" ry="4.736" style="fill:#fcdccf;"/><ellipse cx="892.484" cy="135.487" rx="5.741" ry="7.094" style="fill:#fcdccf;"/><ellipse cx="891.233" cy="158.614" rx="6.745" ry="5.187" style="fill:#fcdccf;"/><ellipse cx="1591.07" cy="42.794" rx="10.436" ry="8.037" style="fill:#fcdccf;"/><circle cx="1587.88" cy="92.738" r="8.119" style="fill:#fcdccf;"/><ellipse cx="737.442" cy="152.791" rx="10.046" ry="7.955" style="fill:#fcdccf;"/><ellipse cx="602.329" cy="176.513" rx="9.595" ry="5.864" style="fill:#fcdccf;"/><ellipse cx="564.174" cy="205.401" rx="11.133" ry="5.454" style="fill:#fcdccf;"/><ellipse cx="301.288" cy="234.105" rx="6.704" ry="5.536" style="fill:#fcdccf;"/><ellipse cx="694.632" cy="336.024" rx="7.442" ry="6.13" style="fill:#fcdccf;"/><circle cx="670.152" cy="305.085" r="6.848" style="fill:#fcdccf;"/><ellipse cx="686.226" cy="264.264" rx="7.627" ry="5.044" style="fill:#fcdccf;"/><ellipse cx="380.059" cy="325.772" rx="3.075" ry="5.064" style="fill:#fcdccf;"/><circle cx="357.342" cy="322.513" r="5.495" style="fill:#fcdccf;"/><circle cx="411.531" cy="284.418" r="4.654" style="fill:#fcdccf;"/><ellipse cx="392.914" cy="295.838" rx="6.376" ry="3.711" style="fill:#fcdccf;"/><ellipse cx="457.58" cy="298.422" rx="6.581" ry="3.69" style="fill:#fcdccf;"/><ellipse cx="462.172" cy="333.994" rx="3.875" ry="7.053" style="fill:#fcdccf;"/><circle cx="259.565" cy="264.223" r="6.335" style="fill:#fcdccf;"/><circle cx="812.523" cy="152.647" r="4.941" style="fill:#fcdccf;"/><ellipse cx="307.561" cy="205.052" rx="5.802" ry="3.937" style="fill:#fcdccf;"/><path d="M1125.05,162.017l5.29,1.169c-0.539,2.49 -2.762,4.283 -5.31,4.283c-2.981,0 -5.434,-2.452 -5.434,-5.433c0,-2.981 2.453,-5.433 5.434,-5.433c2.973,-0 5.423,2.441 5.433,5.414l-5.413,0Z" style="fill:#fcdccf;fill-rule:nonzero;"/><ellipse cx="1130.85" cy="130.525" rx="5.741" ry="7.607" style="fill:#fcdccf;"/><ellipse cx="912.74" cy="187.133" rx="7.381" ry="6.089" style="fill:#fcdccf;"/><path d="M959.241,214.586l-4.88,-31.554" style="fill:none;fill-rule:nonzero;"/><path d="M919.732,185.165l35.306,-1.374" style="fill:none;fill-rule:nonzero;"/></g><g id="trappan"><path d="M1386.46,163.965l32.169,159.675l229.015,-45.311l-16.669,-77.726l42.318,-11.317l-18.801,-81.088l-268.032,55.767Z" style="fill:#554394;fill-rule:nonzero;"/></g><g id="trappor"><path d="M664.842,311.954l-6.93,35.654l10.456,2.419l1.354,-6.991l17.939,-3.957l-1.25,-4.675l-15.07,2.194l1.312,-24.911l-7.811,0.267Z" style="fill:#eaaa1f;fill-rule:nonzero;"/><path d="M674.601,297.479l2.789,-31.103l-9.022,-0.164l-1.435,31.697l7.668,-0.43Z" style="fill:#eaaa1f;fill-rule:nonzero;"/><path d="M695.165,266.827l32.969,-7.729l12.281,65.444l-38.381,7.422l-0.021,5.987l44.901,-7.709l-11.953,-68.951l7.361,-1.619l-0.943,-7.566l-47.423,8.201l1.209,6.52Z" style="fill:#eaaa1f;fill-rule:nonzero;"/><path d="M267.52,202.346l33.029,4.306l0.636,-5.393l-38.525,-5.433l-2.05,16.73l-4.408,44.84l6.438,0.984l-0.185,-21.835c0,-0.016 -0,-0.031 -0,-0.046c-0,-0.978 0.805,-1.783 1.784,-1.783c0.041,-0 0.082,0.001 0.123,0.004l31.923,2.05l0.779,-7.34l-31.923,-2.378l0.615,-13.429l1.764,-11.277Z" style="fill:#eaaa1f;fill-rule:nonzero;"/><path d="M314.081,202.961l0,6.028l9.206,0.656l-3.26,23.783l-10.333,-0.902l-1.005,7.791l14.865,1.886l0.656,-8.426l3.649,-29.688l-13.778,-1.128Z" style="fill:#eaaa1f;fill-rule:nonzero;"/><path d="M811.559,111.662l0.123,-4.244l65.158,-1.086l0,4.08l0.513,28.704l-43.384,2.275l0.123,-4.121l39.837,-2.378l-0.349,-24.337l-62.021,1.107Z" style="fill:#eaaa1f;fill-rule:nonzero;"/><path d="M649.813,426.666l-3.752,33.399l-44.244,-4.428l0.574,-5.31l40.595,3.957l2.747,-22.902l-12.424,-0.328l-8.898,-5.249l25.402,0.861Z" style="fill:#eaaa1f;fill-rule:nonzero;"/><path d="M21.835,175.59l20.565,2.624l-11.892,121.315l-6.212,-0.615l10.866,-117.686l-17.058,-1.373l-9.8,117.624l-4.039,-0.861l10.435,-121.561l7.135,0.533Z" style="fill:#eaaa1f;fill-rule:nonzero;"/><path d="M1164.43,402.145l1.579,8.755l-52.59,8.324l3.568,13.327l40.595,-6.684l0.184,4.182l-47.648,9.022l-6.397,-26.285l60.709,-10.641Z" style="fill:#eaaa1f;fill-rule:nonzero;"/><path d="M805.122,365.978l21.343,59.315l44.368,-7.115l0.922,-63.599l-5.617,0.102l0.492,59.499l-36.639,6.172l-21.138,-55.132l-3.731,0.758Z" style="fill:#eaaa1f;fill-rule:nonzero;"/><path d="M1074.77,88.064l0.8,46.685l-47.812,0.287l-0,-2.891l44.614,-0.533l-0.615,-43.507l3.013,-0.041Z" style="fill:#eaaa1f;fill-rule:nonzero;"/><path d="M1283.47,75.578l-0,4.121l43.219,-0.226l0.308,38.976l4.142,-0l-0.513,-42.871l-47.156,-0Z" style="fill:#eaaa1f;fill-rule:nonzero;"/></g><g id="toaletter"><path d="M649.813,426.666l-24.152,-1.865l2.276,-17.715l5.454,0.41l-1.476,13.102l18.575,0.984l-0.677,5.084Z" style="fill:#b7b0d8;fill-rule:nonzero;"/><path d="M655.472,385.743l-23.188,-2.645l-2.625,15.172l3.178,0.574l1.989,-12.178l20.277,2.152l0.369,-3.075Z" style="fill:#b7b0d8;fill-rule:nonzero;"/><path d="M811.99,188.445l0.308,4.613l21.076,-0.451l-0.307,32.559l-20.421,1.045l-0.164,3.301l25.71,-1.004l0.534,-40.104l-26.736,0.041Z" style="fill:#b7b0d8;fill-rule:nonzero;"/><path d="M321.339,272.752l-0.574,6.869l26.49,3.239l-5.126,34.629l-22.471,-2.583l1.968,-21.343l-4.572,-0l-1.886,23.537l29.79,3.608l6.008,-44.491l-29.627,-3.465Z" style="fill:#b7b0d8;fill-rule:nonzero;"/><path d="M879.731,158.204l-4.244,-0l-0,24.07l-12.507,-0.349l0.738,-21.548l-3.834,-0.041l-0.164,24.542l19.744,0.84l0.267,-27.514Z" style="fill:#b7b0d8;fill-rule:nonzero;"/></g><g id="hissar"><circle cx="649.752" cy="281.097" r="8.632" style="fill:#743437;"/><ellipse cx="276.069" cy="248.744" rx="9.124" ry="8.078" style="fill:#743437;"/></g><g id="text"><text x="879.998px" y="98.52px" style="font-family:'ArialMT', 'Arial', sans-serif;font-size:12.302px;">K5309</text><text x="880.941px" y="70.637px" style="font-family:'ArialMT', 'Arial', sans-serif;font-size:12.302px;">K5310</text><text x="1183.95px" y="38.468px" style="font-family:'ArialMT', 'Arial', sans-serif;font-size:8.201px;">K6304</text><text x="1286.32px" y="14.334px" style="font-family:'ArialMT', 'Arial', sans-serif;font-size:6.151px;">K6305b</text><text x="1314.33px" y="32.495px" style="font-family:'ArialMT', 'Arial', sans-serif;font-size:6.151px;">K6305</text><g transform="matrix(12,0,0,12,465.266,270.145)"></g><text x="388.537px" y="270.145px" style="font-family:'ArialMT', 'Arial', sans-serif;font-size:12px;">Studenthälsan</text><g transform="matrix(12,0,0,12,537.724,411.268)"></g><text x="484.357px" y="411.268px" style="font-family:'ArialMT', 'Arial', sans-serif;font-size:12px;">Infocenter</text><g transform="matrix(12,0,0,12,1532.8,226.428)"></g><text x="1488.55px" y="226.428px" style="font-family:'ArialMT', 'Arial', sans-serif;font-size:12px;">T<tspan x="1495.43px 1499.43px " y="226.428px 226.428px ">ra</tspan>ppan</text></g></g></svg>