<?xml version="1.0" encoding="UTF-8" standalone="no"?><!DOCTYPE svg PUBLIC "-//W3C//DTD SVG 1.1//EN" "http://www.w3.org/Graphics/SVG/1.1/DTD/svg11.dtd"><svg width="100%" height="100%" viewBox="0 0 1674 500" version="1.1" xmlns="http://www.w3.org/2000/svg" xmlns:xlink="http://www.w3.org/1999/xlink" xml:space="preserve" xmlns:serif="http://www.serif.com/" style="fill-rule:evenodd;clip-rule:evenodd;stroke-linejoin:round;stroke-miterlimit:2;"><g id="kaken_05.svg" opacity="0.42"><g id="salar"><path d="M326.392,343.465l34.921,4.608l-8.474,66.349l-35.584,-4.715l9.137,-66.242Z" style="fill:#662483;fill-rule:nonzero;"/><path d="M395.699,352.616l-8.409,66.37l-34.451,-4.564l8.474,-66.349l34.386,4.543Z" style="fill:#662483;fill-rule:nonzero;"/><path d="M430.877,357.266l-8.687,66.349l-34.9,-4.629l8.409,-66.37l35.178,4.65Z" style="fill:#662483;fill-rule:nonzero;"/><path d="M464.985,361.767l-8.024,66.456l-34.771,-4.608l8.687,-66.349l34.108,4.501Z" style="fill:#662483;fill-rule:nonzero;"/><path d="M499.928,366.374l-8.452,66.414l-34.515,-4.565l8.024,-66.456l34.943,4.607Z" style="fill:#662483;fill-rule:nonzero;"/><path d="M534.336,370.918l-7.725,66.52l-35.135,-4.65l8.452,-66.414l34.408,4.544Z" style="fill:#662483;fill-rule:nonzero;"/><path d="M568.701,375.461l-7.939,66.499l-34.151,-4.522l7.725,-66.52l34.365,4.543Z" style="fill:#662483;fill-rule:nonzero;"/><path d="M603.579,380.068l-8.302,66.478l-34.515,-4.586l7.939,-66.499l34.878,4.607Z" style="fill:#662483;fill-rule:nonzero;"/><path d="M741.445,334.914l-12.346,-70.657l83.794,-14.701l19.194,30.024l6.034,38.383l-96.676,16.951Z" style="fill:#662483;fill-rule:nonzero;"/><path d="M1095.3,194.737l35.414,-4.608l0.299,-42.433l-35.541,0l-0.172,47.041Z" style="fill:#662483;fill-rule:nonzero;"/><path d="M960.773,312.348l12.09,67.27l41.79,-7.072l-10.977,-67.292l-42.903,7.094Z" style="fill:#662483;fill-rule:nonzero;"/><path d="M1055.69,331.121l-46.54,7.801l-5.478,-33.668l46.647,-7.693l5.371,33.56Z" style="fill:#662483;fill-rule:nonzero;"/><path d="M957.093,288.495l122.609,-21.623l-0.128,-62.32l-133.587,22.716l11.106,61.227Z" style="fill:#662483;fill-rule:nonzero;"/></g><g id="restricted"><path d="M235.921,332.664l69.458,8.915l-10.442,86.087l-70.378,-10.051l11.362,-84.951Z" style="fill:#e30613;fill-rule:nonzero;"/><path d="M230.358,319.527l-222.751,-20.252l11.191,-117.504l223.179,19.973l-11.619,117.783Z" style="fill:#e30613;fill-rule:nonzero;"/><path d="M247.113,334.1l2.396,-22.288l29.315,4.329l-2.14,21.752l-29.571,-3.793Z" style="fill:#e30613;fill-rule:nonzero;"/><path d="M308.161,320.491l-2.782,21.088l-28.695,-3.686l2.14,-21.752l29.337,4.35Z" style="fill:#e30613;fill-rule:nonzero;"/><path d="M264.488,314.041l1.669,-14.83l1.754,0.236l1.626,-14.852l-18.958,-2.572l-3.466,29.403l2.396,0.386l14.979,2.229Z" style="fill:#e30613;fill-rule:nonzero;"/><path d="M349.394,346.508l2.44,-17.637l-23.089,-3.472l-2.353,18.066l23.002,3.043Z" style="fill:#e30613;fill-rule:nonzero;"/><path d="M357.461,288.281l-23.495,-2.957l-5.221,40.075l23.089,3.472l5.627,-40.59Z" style="fill:#e30613;fill-rule:nonzero;"/><path d="M349.394,346.508l10.87,-77.45l103.416,13.523l-10.014,77.686l-104.272,-13.759Z" style="fill:#e30613;fill-rule:nonzero;"/><path d="M566.347,295.996l-9.479,77.9l-103.202,-13.629l10.014,-77.686l102.667,13.415Z" style="fill:#e30613;fill-rule:nonzero;"/><path d="M562.987,323.663l23.838,3.108l-6.548,50.211l-23.409,-3.086l6.119,-50.233Z" style="fill:#e30613;fill-rule:nonzero;"/><path d="M645.776,472.799l13.01,-99.095l79.279,11.894l-4.601,39.711l65.263,-11.08l10.849,56.427l-70.27,13.03l-93.53,-10.887Z" style="fill:#e30613;fill-rule:nonzero;"/><path d="M832.087,279.58l46.219,-6.9l5.328,37.31l-45.513,7.973l-6.034,-38.383Z" style="fill:#e30613;fill-rule:nonzero;"/><path d="M966.807,444.382l-42.817,7.179l-9.907,-59.577l43.202,-6.601l9.522,58.999Z" style="fill:#e30613;fill-rule:nonzero;"/><path d="M909.376,363.653l32.952,-5.144l5.393,28.353l-33.638,5.122l-4.707,-28.331Z" style="fill:#e30613;fill-rule:nonzero;"/><path d="M909.376,363.653l21.29,-3.322l-4.065,-27.303l-21.655,3.944l4.43,26.681Z" style="fill:#e30613;fill-rule:nonzero;"/><path d="M962.913,326.406l4.322,27.946l-36.569,5.979l-4.065,-27.303l36.312,-6.622Z" style="fill:#e30613;fill-rule:nonzero;"/><path d="M959.832,401.113l43.052,-7.157l7.382,43.204l-43.459,7.222l-6.975,-43.269Z" style="fill:#e30613;fill-rule:nonzero;"/><path d="M1035.07,388.791l7.489,42.99l-32.29,5.379l-7.382,-43.204l32.183,-5.165Z" style="fill:#e30613;fill-rule:nonzero;"/><path d="M1061.68,384.205l7.746,43.097l-26.875,4.479l-7.489,-42.99l26.618,-4.586Z" style="fill:#e30613;fill-rule:nonzero;"/><path d="M1089.22,379.618l6.826,43.226l-26.619,4.458l-7.746,-43.097l27.539,-4.587Z" style="fill:#e30613;fill-rule:nonzero;"/><path d="M1111.35,375.954l7.489,43.097l-22.789,3.793l-6.826,-43.226l22.126,-3.664Z" style="fill:#e30613;fill-rule:nonzero;"/><path d="M1118.84,419.051l46.391,-7.094l-10.036,-58.955l-46.433,7.457l10.078,58.592Z" style="fill:#e30613;fill-rule:nonzero;"/><path d="M1103.69,331.014l46.519,-7.394l4.986,29.382l-46.433,7.457l-5.072,-29.445Z" style="fill:#e30613;fill-rule:nonzero;"/><path d="M1099.17,304.74l46.305,-8.872l4.729,27.752l-46.519,7.394l-4.515,-26.274Z" style="fill:#e30613;fill-rule:nonzero;"/><path d="M1099.17,304.74l-4.215,-24.495l0.128,-31.096l41.17,-7.501l9.222,54.22l-46.305,8.872Z" style="fill:#e30613;fill-rule:nonzero;"/><path d="M1014.65,372.546l-5.499,-33.624l46.54,-7.801l5.371,33.56l-46.412,7.865Z" style="fill:#e30613;fill-rule:nonzero;"/><path d="M1080.62,292.546l5.5,33.217l-30.428,5.358l-5.371,-33.56l30.299,-5.015Z" style="fill:#e30613;fill-rule:nonzero;"/><path d="M945.987,218.482l35.692,-5.744l-8.431,-49.462l-35.841,5.744l8.58,49.462Z" style="fill:#e30613;fill-rule:nonzero;"/><path d="M973.248,163.276l9.95,57.67l32.375,-5.508l-1.027,-8.143l19.13,-3.086l-7.896,-49.355l-52.532,8.422Z" style="fill:#e30613;fill-rule:nonzero;"/><path d="M1070.48,147.696l8.388,49.055l-45.192,7.458l-7.896,-49.355l44.7,-7.158Z" style="fill:#e30613;fill-rule:nonzero;"/><path d="M1135.77,3.125l-0.685,186.447l266.617,-19.974l271.389,-54.712l-0,-112.446l-537.321,0.685Z" style="fill:#e30613;fill-rule:nonzero;"/><path d="M1093.08,3.018l0,45.819l35.306,-0l0,-46.119l-35.306,0.3Z" style="fill:#e30613;fill-rule:nonzero;"/><path d="M1067.51,3.125l0.321,45.862l25.249,-0.15l0,-45.819l-25.57,0.107Z" style="fill:#e30613;fill-rule:nonzero;"/><path d="M1042.92,2.89l-0,46.247l24.907,-0.15l-0.321,-45.862l-24.586,-0.235Z" style="fill:#e30613;fill-rule:nonzero;"/><path d="M1006.97,2.782l0,46.591l35.949,-0.236l-0,-46.247l-35.949,-0.108Z" style="fill:#e30613;fill-rule:nonzero;"/><path d="M982.128,2.718l0,46.655l24.843,-0l0,-46.591l-24.843,-0.064Z" style="fill:#e30613;fill-rule:nonzero;"/><path d="M956.772,2.654l-0,47.019l25.356,-0.3l0,-46.655l-25.356,-0.064Z" style="fill:#e30613;fill-rule:nonzero;"/><path d="M917.143,49.908l-0.257,-47.361l39.886,0.107l-0,47.019l-39.629,0.235Z" style="fill:#e30613;fill-rule:nonzero;"/><path d="M957.05,67.289l-0,46.633l51.226,-0.622l0,-16.159l-11.619,-0.042l-0.406,-29.81l-39.201,-0Z" style="fill:#e30613;fill-rule:nonzero;"/><path d="M1071.57,112.486l0,-45.197l-40.977,-0l0.407,37.61l20.092,-0.278l0,8.122l20.478,-0.257Z" style="fill:#e30613;fill-rule:nonzero;"/><path d="M996.657,97.099l34.28,0.214l-0.343,-30.024l-34.343,-0l0.406,29.81Z" style="fill:#e30613;fill-rule:nonzero;"/><path d="M247.113,334.1l1.583,-14.573l-11.063,-1.564l-1.712,14.701l11.192,1.436Z" style="fill:#e30613;fill-rule:nonzero;"/><path d="M879.59,161.026l-0.257,27.281l26.79,0.408l0,-27.432l-26.533,-0.257Z" style="fill:#e30613;fill-rule:nonzero;"/><rect x="875.845" y="111.307" width="29.101" height="30.517" style="fill:#e30613;"/></g><g id="hissar"><path d="M249.616,238.948l17.653,2.464l-2.139,15.473l-17.718,-2.571l2.204,-15.366Z" style="fill:#e6007e;fill-rule:nonzero;"/><path d="M626.325,294.753l2.953,-22.973l33.702,3.729l-2.953,23.402l-33.702,-4.158Z" style="fill:#e6007e;fill-rule:nonzero;"/><path d="M838.121,195.122l33.487,0.686l0,36.796l-33.188,6.087l-0.299,-43.569Z" style="fill:#e6007e;fill-rule:nonzero;"/><path d="M839.169,169.063l21.869,0.343l-0.342,18.601l-21.783,-0.278l0.256,-18.666Z" style="fill:#e6007e;fill-rule:nonzero;"/></g><g id="toaletter"><path d="M621.596,427.109l2.525,-17.702l24.415,2.936l-2.354,18.216l-24.586,-3.45Z" style="fill:#009fe3;fill-rule:nonzero;"/><path d="M629.599,370.918l23.901,3.236l-3.53,27.152l-24.18,-3.579l3.809,-26.809Z" style="fill:#009fe3;fill-rule:nonzero;"/><path d="M264.488,314.041l1.669,-14.83l1.754,0.236l1.626,-14.852l17.162,2.379l-3.552,29.81l-18.659,-2.743Z" style="fill:#009fe3;fill-rule:nonzero;"/><path d="M906.444,250.113l-30.363,3.579l-1.819,-15.73l33.38,-3.622l-1.198,15.773Z" style="fill:#009fe3;fill-rule:nonzero;"/><path d="M905.01,263.443l-27.389,3.386l2.589,19.138l24.394,-4.201l0.406,-18.323Z" style="fill:#009fe3;fill-rule:nonzero;"/></g><g id="väggar"><path d="M1135.55,60.367l-4.087,-0l-0,18.344l-2.397,0l0,25.91l-1.776,-0l0,8.829l1.519,0l0.129,14.637l6.376,0l0.236,-67.72Z" style="fill-rule:nonzero;"/><path d="M1128.38,48.837l0,-46.119l7.383,0.407l-0,45.862l-7.383,-0.15Z" style="fill-rule:nonzero;"/><path d="M1131.01,147.696l-0.299,42.433l4.365,-0.557l0.15,-41.876l-4.216,0Z" style="fill-rule:nonzero;"/><path d="M957.05,113.922l-26.041,0.557l-1.006,-4.629l26.769,-0.579l0.278,4.651Z" style="fill-rule:nonzero;"/><path d="M937.407,169.02l-2.654,-9.944l5.628,-0l1.947,9.151l-4.921,0.793Z" style="fill-rule:nonzero;"/><path d="M937.835,146.239l-20.692,-96.331l-5.242,0l21.205,96.331l4.729,0Z" style="fill-rule:nonzero;"/><path d="M917.143,49.908l-0.257,-47.361l-5.499,-0l0.514,47.361l5.242,0Z" style="fill-rule:nonzero;"/><path d="M3.092,303.583l233.578,21.795l0.685,-5.272l-234.263,-21.967l-0,5.444Z" style="fill-rule:nonzero;"/><path d="M14.261,176.306l-11.169,127.427l4.515,0.407l-0,-5.851l11.661,-121.361l-5.007,-0.622Z" style="fill-rule:nonzero;"/><path d="M224.559,417.615l-8.816,-1.136l14.615,-96.952l6.997,0.729l-12.796,97.359Z" style="fill-rule:nonzero;"/><path d="M215.743,416.479l-0.92,6.065l510.339,67.506l2.525,-7.865l-511.944,-65.706Z" style="fill-rule:nonzero;"/><path d="M726.167,489.986l445.396,-72.885l-0.941,-5.637l-5.692,0.858l-425.924,71.706l-11.64,-1.735l-1.199,7.693Z" style="fill-rule:nonzero;"/><path d="M1165.23,411.957l-37.596,-221.164l5.263,-0.578l37.725,221.249l-5.392,0.493Z" style="fill-rule:nonzero;"/><path d="M1127.61,190.579l274.085,-20.981l0,2.143l-273.357,20.874l-0.728,-2.036Z" style="fill-rule:nonzero;"/><path d="M1401.7,169.598l271.389,-54.712l3.402,-0.686l0.021,2.465l-273.956,54.969l-0.856,-2.036Z" style="fill-rule:nonzero;"/><path d="M1673.09,114.886l-0,-116.754l3.68,0l-0.278,116.068l-3.402,0.686Z" style="fill-rule:nonzero;"/><path d="M815.204,195.122l15.749,0.343l-0,32.425l7.168,-0l-0,-32.768l0.792,-7.393l-23.731,-0l0.022,7.393Z" style="fill-rule:nonzero;"/><path d="M838.121,195.122l36.547,0.729l0,-2.25l31.455,0.257l0,-5.143l-45.427,-0.708l-21.783,-0.278l-0.792,7.393Z" style="fill-rule:nonzero;"/><path d="M830.953,227.89l-22.019,3.3l0.343,13.48l4.194,-0.707l0.064,-8.53l24.843,-2.721l-0.257,-4.822l-7.168,-0Z" style="fill-rule:nonzero;"/><path d="M664.328,268.951l149.143,-24.988l-0.578,5.593l-149.913,25.953l1.348,-6.558Z" style="fill-rule:nonzero;"/><path d="M664.328,268.951l-40.742,-4.929l-2.589,18.473l6.783,0.857l1.498,-11.572l33.702,3.729l1.348,-6.558Z" style="fill-rule:nonzero;"/><path d="M307.476,236.376l314.27,40.654l-0.749,5.465l-327.644,-42.261l1.37,-6.065l12.753,2.207Z" style="fill-rule:nonzero;"/><path d="M311.178,206.888l-4.408,29.36l-12.047,-2.079l3.851,-29.96l12.604,2.679Z" style="fill-rule:nonzero;"/><path d="M18.798,181.771l223.179,19.973l0.685,-5.593l-223.394,-19.223l-0.47,4.843Z" style="fill-rule:nonzero;"/><path d="M298.574,204.209l-55.912,-8.058l-0.685,5.593l55.891,7.994l0.706,-5.529Z" style="fill-rule:nonzero;"/><path d="M230.358,319.527l5.777,-58.591l7.896,1.136l-6.676,58.184l-6.997,-0.729Z" style="fill-rule:nonzero;"/><path d="M241.977,201.744l-4.814,51.262l10.249,1.308l2.204,-15.366l1.07,-8.98l-5.884,-0.814l2.61,-26.21l-5.435,-1.2Z" style="fill-rule:nonzero;"/><path d="M250.686,229.968l30.321,3.386l-0.728,6.151l-7.767,-0.793l-0.364,3.343l-4.879,-0.643l-17.653,-2.464l1.07,-8.98Z" style="fill-rule:nonzero;"/><path d="M250.579,282.023l-3.466,29.403l2.396,0.386l-0.813,7.715l-11.063,-1.564l4.28,-37.225l8.666,1.285Z" style="fill-rule:nonzero;"/><path d="M645.776,471.684l13.01,-97.98l1.027,-7.094l-5.221,-0.921l-13.674,105.352l4.858,0.643Z" style="fill-rule:nonzero;"/><path d="M603.579,380.068l4.494,-31.503l-23.688,-3.021l-4.108,31.438l23.302,3.086Z" style="fill-rule:nonzero;"/><path d="M738.086,385.598l-4.686,39.689l38.73,-6.558c-0,0 -3.06,-30.988 -34.044,-33.131Z" style="fill-rule:nonzero;"/><path d="M627.78,283.352l-1.455,11.401l6.398,0.793l-0.364,2.593l-9.072,-1.178l1.69,-13.952l2.803,0.343Z" style="fill-rule:nonzero;"/><path d="M664.156,349.466l19.601,-3.837l-0.664,-4.329l-20.113,3.794l1.176,4.372Z" style="fill-rule:nonzero;"/><path d="M741.445,334.914l-46.476,8.637l-0.749,-4.329l46.455,-8.744l0.77,4.436Z" style="fill-rule:nonzero;"/><path d="M663.322,342.115l2.503,2.443l-2.845,0.536l0.342,-2.979Z" style="fill-rule:nonzero;"/><path d="M662.98,275.509l9.5,-1.629l-4.087,30.517l-8.966,-0.943l0.6,-4.543l2.953,-23.402Z" style="fill-rule:nonzero;"/><path d="M666.681,317.084l-7.254,-0.557l-3.445,33.346l7.425,-0.322l3.274,-32.467Z" style="fill-rule:nonzero;"/><path d="M691.053,289.631l18.445,-3.343l6.142,31.739l-18.296,3.343l-6.291,-31.739Z" style="fill-rule:nonzero;"/><path d="M293.353,240.234l-2.268,12.258l2.183,0.45l2.396,-12.43l-2.311,-0.278Z" style="fill-rule:nonzero;"/><path d="M289.159,274.223l-2.931,-0.45l2.182,-12.109l3.103,0.408l-2.354,12.151Z" style="fill-rule:nonzero;"/><path d="M740.675,330.478l-5.542,1.05l-11.897,-66.435l5.863,-0.836l11.576,66.221Z" style="fill-rule:nonzero;"/><path d="M813.535,235.433l-0.064,8.53l-0.578,5.593l19.194,30.024l46.219,-6.9l-4.044,-34.718l38.131,-4.136l-0.749,-8.208l-7.318,0l-0.064,-3.15l-32.654,-0l0,10.136l-33.188,6.087l-0.042,-5.979l-24.843,2.721Z" style="fill-rule:nonzero;"/><path d="M871.608,202.644l34.515,-1.307l0,-7.479l-31.455,-0.257l0,2.25l-3.06,-0.043l0,6.836Z" style="fill-rule:nonzero;"/><path d="M824.533,187.729l0,-4.351l14.444,0l-0.064,4.351l-14.38,-0Z" style="fill-rule:nonzero;"/><path d="M879.333,188.307l-18.637,-0.3l0.064,-4.157l18.616,0.214l-0.043,4.243Z" style="fill-rule:nonzero;"/><path d="M860.76,183.85l0.278,-22.824l2.075,0l0,22.845l-2.353,-0.021Z" style="fill-rule:nonzero;"/><path d="M861.038,169.406l-7.104,-0.108l-0,-2.421l7.104,-0l-0,2.529Z" style="fill-rule:nonzero;"/><path d="M846.487,169.17l-7.574,-0.107l0.064,14.315l-2.589,0l-0,-16.501l10.099,-0l0,2.293Z" style="fill-rule:nonzero;"/><path d="M863.113,161.026l16.477,0l-0.214,23.038l-16.263,-0.193l0,-22.845Z" style="fill:#009fe3;fill-rule:nonzero;"/><rect x="808.356" y="106.035" width="6.869" height="89.087"/><path d="M1673.09,2.44l-802.975,0.107l-0,-5.165l802.975,0.75l-0,4.308Z" style="fill-rule:nonzero;"/><rect x="815.204" y="106.035" width="62.589" height="5.293"/><path d="M870.111,2.547l-0,103.488l7.681,0l0,-103.381l-7.681,-0.107Z" style="fill-rule:nonzero;"/><path d="M872.122,111.307l-0,26.981l-40.356,0l-0,3.558l44.079,-0l0,-30.539l-3.723,0Z" style="fill-rule:nonzero;"/><path d="M1008.28,119.815l0,-22.674l22.661,0.172l0.064,7.586l20.092,-0.278l0,8.122l-20.156,-0l-0,7.072l-22.661,0Z" style="fill-rule:nonzero;"/><path d="M983.198,220.946l-37.211,6.322l-10.378,1.715l-1.497,-8.487l11.875,-2.014l35.692,-5.744l1.519,8.208Z" style="fill-rule:nonzero;"/><path d="M1015.57,215.438l64.001,-10.886l-0.706,-7.801l-64.322,10.544l1.027,8.143Z" style="fill-rule:nonzero;"/><path d="M1095.3,194.737l32.311,-4.158l1.091,6.536l-31.39,3.751l0.15,24.473l-2.162,0l0,-30.602Z" style="fill-rule:nonzero;"/><path d="M1095.09,249.149l0.214,-11.08l2.354,0l-0.299,10.673l-2.269,0.407Z" style="fill-rule:nonzero;"/><path d="M957.285,385.383l-9.564,1.479l-5.393,-28.353l24.907,-4.157l5.628,25.266l0.449,2.808l-16.027,2.957Z" style="fill-rule:nonzero;"/></g><g id="trappor"><path d="M877.792,21.084l23.26,0l-0,-18.987l-23.26,0.557l0,18.43Z" style="fill:#ca9e67;fill-rule:nonzero;"/><rect x="831.744" y="111.307" width="40.378" height="26.96" style="fill:#ca9e67;"/><path d="M1105.25,208.259c0,0 21.676,-8.293 23.538,15.43c1.862,23.724 -17.118,19.909 -17.118,19.909c-0,0 7.682,-21.087 -6.42,-35.339Z" style="fill:#ca9e67;fill-rule:nonzero;"/><path d="M802.001,374.518l21.099,60.541l46.904,-8.529l-0.921,-63.499l-15.363,0l0.471,37.761l-3.231,-0.622l-2.055,-45.754l-32.867,5.915l14.743,41.897l-2.867,1.843l-12.197,-34.889l-13.716,5.336Z" style="fill:#ca9e67;fill-rule:nonzero;"/><path d="M691.053,289.631l18.445,-3.343l6.142,31.739l-18.296,3.343l3.082,16.673l34.707,-6.515l-11.897,-66.435l-36.612,6.322l4.429,18.216Z" style="fill:#ca9e67;fill-rule:nonzero;"/><path d="M279.38,233.162l-34.578,-4.008l2.61,-26.21l35.221,4.629l-1.626,11.337l-25.506,-3.557l-0.364,2.679l25.356,3.621l-1.113,11.509Z" style="fill:#ca9e67;fill-rule:nonzero;"/></g><g id="dörrar"><path d="M922.298,222.545c7.367,-1.634 13.87,-0.608 14.511,2.291c0.641,2.898 -4.821,6.578 -12.188,8.213c-7.368,1.635 -13.87,0.608 -14.512,-2.29c-0.641,-2.899 4.821,-6.579 12.189,-8.214Z" style="fill:#3aaa35;"/><path d="M657.938,359.348c0.41,-5.867 2.364,-10.516 4.36,-10.376c1.995,0.14 3.283,5.016 2.873,10.883c-0.41,5.866 -2.363,10.516 -4.359,10.376c-1.996,-0.14 -3.284,-5.017 -2.874,-10.883Z" style="fill:#3aaa35;"/><ellipse cx="889.24" cy="-0.046" rx="9.971" ry="4.415" style="fill:#3aaa35;"/><ellipse cx="1133.62" cy="54.623" rx="3.381" ry="6.151" style="fill:#3aaa35;"/><ellipse cx="1132.79" cy="137.388" rx="4.258" ry="10.672" style="fill:#3aaa35;"/><ellipse cx="1103.73" cy="48.473" rx="4.579" ry="2.4" style="fill:#3aaa35;"/><ellipse cx="1077.58" cy="48.473" rx="4.087" ry="2.4" style="fill:#3aaa35;"/><ellipse cx="1054.15" cy="48.88" rx="4.301" ry="1.993" style="fill:#3aaa35;"/><ellipse cx="1016.49" cy="49.158" rx="4.13" ry="2.25" style="fill:#3aaa35;"/><ellipse cx="992.763" cy="49.437" rx="4.515" ry="1.993" style="fill:#3aaa35;"/><ellipse cx="966.337" cy="49.437" rx="3.766" ry="1.993" style="fill:#3aaa35;"/><ellipse cx="928.035" cy="49.437" rx="5.328" ry="1.993" style="fill:#3aaa35;"/><ellipse cx="1063.44" cy="66.731" rx="4.986" ry="2.336" style="fill:#3aaa35;"/><ellipse cx="1013.86" cy="67.139" rx="3.766" ry="2.743" style="fill:#3aaa35;"/><ellipse cx="977.956" cy="67.139" rx="4.708" ry="2.743" style="fill:#3aaa35;"/><ellipse cx="871.287" cy="160.919" rx="4.151" ry="1.843" style="fill:#3aaa35;"/><ellipse cx="891.829" cy="160.919" rx="4.001" ry="1.843" style="fill:#3aaa35;"/><ellipse cx="890.139" cy="141.631" rx="4.451" ry="1.65" style="fill:#3aaa35;"/><ellipse cx="904.326" cy="151.747" rx="3.081" ry="9.901" style="fill:#3aaa35;"/><path d="M935.156,145.271c1.821,-0.192 3.647,2.966 4.076,7.048c0.429,4.082 -0.7,7.551 -2.521,7.743c-1.82,0.192 -3.647,-2.966 -4.076,-7.048c-0.429,-4.081 0.701,-7.551 2.521,-7.743Z" style="fill:#3aaa35;"/><path d="M328.158,319.527c0.237,-1.938 1.01,-3.439 1.725,-3.351c0.715,0.087 1.103,1.731 0.867,3.668c-0.237,1.937 -1.01,3.439 -1.725,3.351c-0.715,-0.087 -1.103,-1.731 -0.867,-3.668Z" style="fill:#3aaa35;"/><ellipse cx="954.011" cy="166.32" rx="6.12" ry="2.186" style="fill:#3aaa35;"/><ellipse cx="1005.6" cy="157.747" rx="6.762" ry="2.164" style="fill:#3aaa35;"/><ellipse cx="1051.01" cy="150.654" rx="6.141" ry="2.122" style="fill:#3aaa35;"/><ellipse cx="1095.64" cy="157.319" rx="2.011" ry="4.008" style="fill:#3aaa35;"/><ellipse cx="897.264" cy="251.056" rx="3.167" ry="1.5" style="fill:#3aaa35;"/><ellipse cx="882.35" cy="253.006" rx="3.081" ry="1.264" style="fill:#3aaa35;"/><ellipse cx="897.714" cy="264.75" rx="3.338" ry="1.307" style="fill:#3aaa35;"/><ellipse cx="883.848" cy="266.036" rx="2.867" ry="1.307" style="fill:#3aaa35;"/><ellipse cx="949.839" cy="250.113" rx="2.29" ry="6.086" style="fill:#3aaa35;"/><path d="M957.922,288.464c1.352,-0.222 3.327,4.951 4.409,11.545c1.082,6.595 0.863,12.129 -0.489,12.352c-1.352,0.222 -3.328,-4.951 -4.409,-11.545c-1.082,-6.595 -0.863,-12.129 0.489,-12.352Z" style="fill:#3aaa35;"/><ellipse cx="1096.54" cy="231.876" rx="2.974" ry="7.008" style="fill:#3aaa35;"/><ellipse cx="1095.45" cy="271.822" rx="1.883" ry="5.979" style="fill:#3aaa35;"/><ellipse cx="1100.63" cy="314.577" rx="2.418" ry="4.543" style="fill:#3aaa35;"/><ellipse cx="992.998" cy="307.569" rx="5.285" ry="2.057" style="fill:#3aaa35;"/><ellipse cx="1036.78" cy="299.747" rx="6.184" ry="2.207" style="fill:#3aaa35;"/><ellipse cx="1083.11" cy="309.69" rx="1.434" ry="4.972" style="fill:#3aaa35;"/><ellipse cx="1024.86" cy="370.36" rx="4.087" ry="2.186" style="fill:#3aaa35;"/><ellipse cx="1105.64" cy="340.293" rx="1.926" ry="5.1" style="fill:#3aaa35;"/><ellipse cx="1110.43" cy="367.853" rx="2.247" ry="4.265" style="fill:#3aaa35;"/><ellipse cx="1103.33" cy="377.797" rx="4.237" ry="1.843" style="fill:#3aaa35;"/><ellipse cx="1079.36" cy="381.719" rx="4.772" ry="2.1" style="fill:#3aaa35;"/><ellipse cx="1052.18" cy="386.026" rx="5.328" ry="1.822" style="fill:#3aaa35;"/><ellipse cx="1025.2" cy="389.905" rx="5.456" ry="2.057" style="fill:#3aaa35;"/><ellipse cx="992.977" cy="395.906" rx="5.542" ry="1.95" style="fill:#3aaa35;"/><ellipse cx="1003.31" cy="374.668" rx="4.536" ry="2.122" style="fill:#3aaa35;"/><ellipse cx="949.026" cy="329.171" rx="4.408" ry="1.843" style="fill:#3aaa35;"/><ellipse cx="916.758" cy="335.257" rx="3.83" ry="1.843" style="fill:#3aaa35;"/><ellipse cx="935.545" cy="388.984" rx="3.959" ry="1.672" style="fill:#3aaa35;"/><ellipse cx="958.27" cy="393.334" rx="1.562" ry="3.9" style="fill:#3aaa35;"/><ellipse cx="915.795" cy="402.228" rx="1.712" ry="3.836" style="fill:#3aaa35;"/><path d="M845.807,314.008c2.894,-0.45 5.401,0.2 5.595,1.451c0.194,1.25 -1.999,2.631 -4.893,3.08c-2.894,0.45 -5.401,-0.2 -5.595,-1.451c-0.194,-1.25 1.999,-2.631 4.893,-3.08Z" style="fill:#3aaa35;"/><path d="M822.192,318.898c2.997,-0.61 5.631,-0.117 5.878,1.1c0.247,1.217 -1.987,2.7 -4.984,3.31c-2.998,0.61 -5.632,0.117 -5.878,-1.1c-0.247,-1.218 1.986,-2.701 4.984,-3.31Z" style="fill:#3aaa35;"/><ellipse cx="786.145" cy="416.265" rx="5.842" ry="2.486" style="fill:#3aaa35;"/><ellipse cx="668.821" cy="374.861" rx="5.842" ry="2.936" style="fill:#3aaa35;"/><path d="M688.71,339.088c3.912,-0.796 7.365,-0.078 7.705,1.603c0.341,1.681 -2.558,3.691 -6.47,4.487c-3.912,0.796 -7.364,0.077 -7.705,-1.604c-0.341,-1.68 2.558,-3.691 6.47,-4.486Z" style="fill:#3aaa35;"/><ellipse cx="663.707" cy="310.59" rx="4.686" ry="8.529" style="fill:#3aaa35;"/><ellipse cx="240.501" cy="333.05" rx="2.867" ry="1.457" style="fill:#3aaa35;"/><ellipse cx="373.638" cy="270.965" rx="8.602" ry="3.493" style="fill:#3aaa35;"/><ellipse cx="476.754" cy="283.416" rx="10.785" ry="4.522" style="fill:#3aaa35;"/><ellipse cx="585.412" cy="337.829" rx="1.712" ry="3.943" style="fill:#3aaa35;"/><ellipse cx="627.288" cy="389.327" rx="1.498" ry="4.265" style="fill:#3aaa35;"/><path d="M599.881,407.541c0.189,-1.574 5.778,-2.198 12.473,-1.392c6.695,0.805 11.978,2.737 11.789,4.311c-0.189,1.573 -5.777,2.197 -12.473,1.391c-6.695,-0.805 -11.977,-2.737 -11.789,-4.31Z" style="fill:#3aaa35;"/><ellipse cx="642.844" cy="411.786" rx="2.247" ry="1.993" style="fill:#3aaa35;"/><ellipse cx="628.208" cy="409.771" rx="2.418" ry="2.079" style="fill:#3aaa35;"/><ellipse cx="584.428" cy="444.639" rx="4.815" ry="2.657" style="fill:#3aaa35;"/><ellipse cx="548.223" cy="439.624" rx="5.285" ry="2.936" style="fill:#3aaa35;"/><ellipse cx="510.156" cy="434.609" rx="4.986" ry="2.829" style="fill:#3aaa35;"/><ellipse cx="463.894" cy="428.523" rx="4.943" ry="3.257" style="fill:#3aaa35;"/><ellipse cx="449.622" cy="427.43" rx="5.628" ry="3.257" style="fill:#3aaa35;"/><ellipse cx="402.932" cy="420.465" rx="5.456" ry="3.129" style="fill:#3aaa35;"/><ellipse cx="363.153" cy="415.322" rx="5.371" ry="2.7" style="fill:#3aaa35;"/><ellipse cx="345.564" cy="413.607" rx="4.986" ry="3.386" style="fill:#3aaa35;"/><path d="M294.852,410.675c0.482,-3.229 1.964,-5.687 3.307,-5.485c1.344,0.201 2.042,2.986 1.56,6.214c-0.482,3.229 -1.964,5.686 -3.308,5.485c-1.343,-0.201 -2.042,-2.986 -1.559,-6.214Z" style="fill:#3aaa35;"/><path d="M326.392,330.786c0.241,-1.973 1.198,-3.481 2.136,-3.366c0.938,0.115 1.503,1.81 1.262,3.782c-0.241,1.973 -1.198,3.481 -2.136,3.366c-0.937,-0.115 -1.503,-1.81 -1.262,-3.782Z" style="fill:#3aaa35;"/><path d="M305.384,340.85c0.211,-1.725 5.179,-2.538 11.087,-1.814c5.908,0.724 10.533,2.714 10.322,4.44c-0.21,1.725 -5.178,2.538 -11.086,1.814c-5.908,-0.725 -10.534,-2.714 -10.323,-4.44Z" style="fill:#3aaa35;"/><ellipse cx="306.748" cy="327.799" rx="1.947" ry="4.243" style="fill:#3aaa35;"/><path d="M283.981,280.313c0.596,-3.881 2.301,-6.844 3.807,-6.613c1.506,0.232 2.245,3.571 1.65,7.453c-0.595,3.881 -2.301,6.844 -3.806,6.613c-1.506,-0.232 -2.246,-3.571 -1.651,-7.453Z" style="fill:#3aaa35;"/><path d="M288.495,256.469c0.532,-3.472 2.121,-6.114 3.545,-5.895c1.424,0.219 2.148,3.216 1.616,6.688c-0.533,3.473 -2.121,6.114 -3.545,5.895c-1.424,-0.219 -2.148,-3.216 -1.616,-6.688Z" style="fill:#3aaa35;"/><ellipse cx="284.045" cy="308.19" rx="1.498" ry="3.579" style="fill:#3aaa35;"/><ellipse cx="285.543" cy="293.982" rx="1.904" ry="3.386" style="fill:#3aaa35;"/><ellipse cx="258.325" cy="283.824" rx="4.622" ry="3.086" style="fill:#3aaa35;"/><ellipse cx="286.228" cy="236.976" rx="7.853" ry="6.043" style="fill:#3aaa35;"/><ellipse cx="240.843" cy="257.485" rx="5.585" ry="7.736" style="fill:#3aaa35;"/></g><g id="text"><g transform="matrix(0.99847,0,0,1,0.488133,0)"><text x="319.144px" y="403.026px" style="font-family:'ArialMT', 'Arial', sans-serif;font-size:12.858px;">K2515</text></g><g transform="matrix(0.99847,0,0,1,0.545023,0)"><text x="356.338px" y="374.02px" style="font-family:'ArialMT', 'Arial', sans-serif;font-size:12.858px;">K2516</text></g><g transform="matrix(0.99847,0,0,1,0.594442,-5.68434e-14)"><text x="388.649px" y="403.026px" style="font-family:'ArialMT', 'Arial', sans-serif;font-size:12.858px;">K2517</text></g><g transform="matrix(0.99847,0,0,1,0.653918,0)"><text x="427.534px" y="378.72px" style="font-family:'ArialMT', 'Arial', sans-serif;font-size:12.858px;">K2524</text></g><g transform="matrix(0.99847,0,0,1,0.705669,-5.68434e-14)"><text x="461.369px" y="403.026px" style="font-family:'ArialMT', 'Arial', sans-serif;font-size:12.858px;">K2525</text></g><g transform="matrix(0.99847,0,0,1,0.757167,0)"><text x="495.039px" y="421.938px" style="font-family:'ArialMT', 'Arial', sans-serif;font-size:12.858px;">K2526</text></g><g transform="matrix(0.99847,0,0,1,0.811977,-5.68434e-14)"><text x="530.874px" y="403.026px" style="font-family:'ArialMT', 'Arial', sans-serif;font-size:12.858px;">K2527</text></g><g transform="matrix(0.99847,0,0,1,0.861651,0)"><text x="563.351px" y="421.938px" style="font-family:'ArialMT', 'Arial', sans-serif;font-size:12.858px;">K2528</text></g><g transform="matrix(0.99847,0,0,1,1.16498,-5.68434e-14)"><text x="761.666px" y="295.332px" style="font-family:'ArialMT', 'Arial', sans-serif;font-size:12.858px;">K4504</text></g><g transform="matrix(0.99847,0,0,1,1.48689,0)"><text x="972.135px" y="338.536px" style="font-family:'ArialMT', 'Arial', sans-serif;font-size:12.858px;">K501</text></g><g transform="matrix(0.99847,0,0,1,1.55192,-5.68434e-14)"><text x="1014.65px" y="323.62px" style="font-family:'ArialMT', 'Arial', sans-serif;font-size:12.858px;">K502</text></g><g transform="matrix(0.99847,0,0,1,1.52178,0)"><text x="994.946px" y="251.742px" style="font-family:'ArialMT', 'Arial', sans-serif;font-size:12.858px;">K4507</text></g><g transform="matrix(0.99847,0,0,1,1.68035,0)"><text x="1098.62px" y="169.191px" style="font-family:'ArialMT', 'Arial', sans-serif;font-size:12.858px;">K505</text></g></g></g></svg>