<?xml version="1.0" encoding="UTF-8" standalone="no"?><!DOCTYPE svg PUBLIC "-//W3C//DTD SVG 1.1//EN" "http://www.w3.org/Graphics/SVG/1.1/DTD/svg11.dtd"><svg width="100%" height="100%" viewBox="0 0 1680 500" version="1.1" xmlns="http://www.w3.org/2000/svg" xmlns:xlink="http://www.w3.org/1999/xlink" xml:space="preserve" xmlns:serif="http://www.serif.com/" style="fill-rule:evenodd;clip-rule:evenodd;stroke-linejoin:round;stroke-miterlimit:2;"><g id="kaken_02.svg"><g id="salar"><path d="M16.956,300.919l10.463,-112.657l100.599,8.91l-9.434,112.873l-101.628,-9.126Z" style="fill:#9dd6e8;fill-rule:nonzero;"/><path d="M128.018,197.172l113.667,10.383l-3.614,33.665l-24.267,-2.276l-5.19,49.879l-87.593,-8.389l6.997,-83.262Z" style="fill:#9dd6e8;fill-rule:nonzero;"/><path d="M16.956,300.919l-8.153,90.654l125.014,15.521l6.723,-94.448l-123.584,-11.727Z" style="fill:#9dd6e8;fill-rule:nonzero;"/><path d="M355.163,247.983l-19.54,17.017l-13.383,106.673l52.673,17.624l75.428,9.278l19.792,0.238l2.69,-37.523l34.982,-31.996l7.207,-59.005l-159.849,-22.306Z" style="fill:#9dd6e8;fill-rule:nonzero;"/><path d="M585.713,279.046l-16.998,123.777l-69.818,-8.497l-28.764,4.487l2.69,-37.523l34.982,-31.996l7.207,-59.005l70.701,8.757Z" style="fill:#9dd6e8;fill-rule:nonzero;"/><path d="M1015.95,210.135l-106.314,19.032l14.077,81.853l106.545,-18.122l-14.308,-82.763Z" style="fill:#9dd6e8;fill-rule:nonzero;"/><path d="M1045.38,379.434l-15.128,-86.536l-87.53,14.589l14.917,87.749l87.741,-15.802Z" style="fill:#9dd6e8;fill-rule:nonzero;"/><path d="M1129.8,365.148c1.093,-2.363 -20.023,-127.397 -20.023,-127.397l-85.849,15.326l21.452,126.357l84.42,-14.286Z" style="fill:#9dd6e8;fill-rule:nonzero;"/><path d="M1141.13,210.742l190.818,-38.824l1.639,11.207l8.803,-1.778l22.713,117.794l-8.047,4.357l2.038,9.863l-190.776,40.363l-27.188,-142.982Z" style="fill:#9dd6e8;fill-rule:nonzero;"/><path d="M1641.62,110.593l16.284,80.206l-49.922,10.231l-17.522,-79.143l51.16,-11.294Z" style="fill:#9dd6e8;fill-rule:nonzero;"/><path d="M1491.54,225.135l116.44,-24.105l-17.48,-79.165l-113.983,24.56l15.023,78.71Z" style="fill:#9dd6e8;fill-rule:nonzero;"/><path d="M1387.12,245.382l104.423,-20.247l-15.023,-78.71l-104.927,20.008l15.527,78.949Z" style="fill:#9dd6e8;fill-rule:nonzero;"/><path d="M1597.98,41.421l1.177,-42.552l37.105,0.303l0.294,42.097l-38.576,0.152Z" style="fill:#9dd6e8;fill-rule:nonzero;"/></g><g id="restricted"><path d="M1111.67,191.687l-0.525,-196.612l-528.606,4.054l1.008,89.57l-12.081,-0l0,0.13l-261.582,-2.081l-1.617,-82.785l-63.663,-0.109l1.891,195.182l65.722,6.07l-12.964,34.054l286.459,39.886l-0.021,-0.628l0.021,0.628l30.528,4.206l2.752,-16.67l41.832,4.964l18.343,-4.032l33.175,-4.899l12.376,72.12l132.43,-23.411l-2.858,-17.862l29.478,-3.512l-5.4,-32.798l17.901,-2.211l2.585,-6.958l13.488,3.598l-2.71,-22.414l202.038,-37.48Z" style="fill:#e42513;fill-rule:nonzero;"/></g><g id="rum"><path d="M1163.78,-2.714l1.912,124.211l54.607,-0.976l99.842,-7.305l-1.344,-115.93l-155.017,0Z" style="fill:#7870b2;fill-rule:nonzero;"/><path d="M1163.78,-2.714l-52.883,0.802l-0,58.117l53.997,1.929l-1.114,-60.848Z" style="fill:#7870b2;fill-rule:nonzero;"/><path d="M1387.12,245.382l14.287,79.143l225.507,-47.56l-12.438,-76.737l-227.356,45.154Z" style="fill:#7870b2;fill-rule:nonzero;"/><path d="M212.123,255.223l24.204,2.732l-3.256,33.079l-24.457,-2.211l3.509,-33.6Z" style="fill:#7870b2;fill-rule:nonzero;"/><path d="M942.725,307.487l-19.015,3.533l3.446,19.076l18.888,-3.1l-3.319,-19.509Z" style="fill:#7870b2;fill-rule:nonzero;"/><path d="M949.889,350.516l-47.736,8.563l-4.391,-23.282l48.282,-8.801l3.845,23.52Z" style="fill:#7870b2;fill-rule:nonzero;"/></g><g id="väggar"><path d="M1111.48,119.307l40.151,0.564l0.042,3.056l-40.193,-0.282l-0,-3.338Z" style="fill:#9e9e9e;fill-rule:nonzero;"/><path d="M1102.15,193.118l34.689,212.393l8.635,-1.3l-35.655,-212.827l-7.669,1.734Z" style="fill:#9e9e9e;fill-rule:nonzero;"/><path d="M957.642,395.236l5.463,38.716l4.706,-0.997l-4.853,-38.694l-5.316,0.975Z" style="fill:#9e9e9e;fill-rule:nonzero;"/><path d="M657.38,300.333l3.445,-28.787l-6.639,-0.867l-2.941,28.896l6.135,0.758Z" style="fill:#9e9e9e;fill-rule:nonzero;"/><path d="M685.702,336.274l0.294,5.311l38.723,-6.85l-1.009,-4.834l-38.008,6.373Z" style="fill:#9e9e9e;fill-rule:nonzero;"/><path d="M638.155,467.291l4.853,-48.405l-7.521,-0.65l-7.396,47.82l10.064,1.235Z" style="fill:#9e9e9e;fill-rule:nonzero;"/><path d="M232.062,304.647l9.098,1.257l-7.879,71.275l-9.413,-0.867l8.194,-71.665Z" style="fill:#9e9e9e;fill-rule:nonzero;"/><path d="M218.804,419.623l3.824,-27.292l8.615,1.063l-2.711,28.657l-9.728,-2.428Z" style="fill:#9e9e9e;fill-rule:nonzero;"/><path d="M277.025,335.429l-38.471,-4.552l2.606,-24.973l39.121,3.967l-2.752,25.645" style="fill:#9e9e9e;fill-rule:nonzero;"/><path d="M1458.47,59.088l0.021,-2.558l-49.207,0l-0.021,2.58l49.207,-0.022Z" style="fill:#9e9e9e;fill-rule:nonzero;"/><path d="M1544.85,-0.459l-0.147,51.982l5.777,-0l0.463,-51.982l-6.093,-0Z" style="fill:#9e9e9e;fill-rule:nonzero;"/><path d="M1319.3,60.107l17.565,0.152l0.315,-3.425l-17.691,-0.304l-0.189,3.577Z" style="fill:#9e9e9e;fill-rule:nonzero;"/><path d="M1476.54,59.153l-1.029,-63.102l-77.593,0.238l-79.378,0.52l0.253,3.252l74.377,-0.325l-0.315,56.1l-44.963,0.694l0.315,3.577l49.711,-0.954l0,-50.595l72.55,0.109l0,50.421l6.072,0.065Z" style="fill:#9e9e9e;fill-rule:nonzero;"/><path d="M281.311,229.362c-0,0 -21.935,-3.338 -33.617,-5.181l1.261,-24.863l-6.304,-0.802l-2.101,24.473l0.421,0l-0.421,0l-6.996,67.958l8.173,1.713l6.135,-58.312l36.601,3.924l1.176,-4.336l-4.328,-4.574Z" style="fill:#9e9e9e;fill-rule:nonzero;"/><path d="M949.175,350.646l-23.847,4.097l5.589,28.116l23.826,-4.574l-5.568,-27.639Z" style="fill:#9e9e9e;fill-rule:nonzero;"/><path d="M667.969,338.42l-15.485,2.341l2.837,-25.774l-6.219,-0.433l-1.156,9.147l-23.49,-3.056l-0.399,3.555l23.469,2.84l-2.374,18.816l-24.163,-2.667l-0.378,3.013l24.162,2.515l-5.462,43.289l-24.394,-2.167l-0.294,4.162l31.978,3.598l0.063,-1.192l6.388,-48.926l15.274,-3.555l-0.357,-5.506Z" style="fill:#9e9e9e;fill-rule:nonzero;"/><path d="M330.56,299.531l-15.548,-1.018l-0,-3.144l16.199,1.128l-0.651,3.034Z" style="fill:#9e9e9e;fill-rule:nonzero;"/><path d="M301.124,297.125l-0.063,-3.078l-11.367,-1.821l1.912,-15.065l-47.988,-6.178l-0.294,2.146l45.593,5.809l-1.912,16.67l2.227,0.217l0.021,-0.217l11.871,1.517Z" style="fill:#9e9e9e;fill-rule:nonzero;"/><path d="M883.769,289.95l18.321,-2.97l-0.378,-1.821l-18.195,2.623l0.252,2.168Z" style="fill:#9e9e9e;fill-rule:nonzero;"/><ellipse cx="742.073" cy="405.056" rx="17.103" ry="17.06" style="fill:#9e9e9e;"/><path d="M1330.92,171.744l-1.534,-3.533l-164.198,12.313l-21.683,29.719l187.415,-38.499Z" style="fill:#9e9e9e;fill-rule:nonzero;"/><path d="M578.191,343.384l22.943,3.62l-3.004,29.481l-24.015,-2.081l4.076,-31.02Z" style="fill:#9e9e9e;fill-rule:nonzero;"/><path d="M212.627,255.158l1.177,-16.214l24.267,2.276l-1.744,16.735l-23.7,-2.797Z" style="fill:#9e9e9e;fill-rule:nonzero;"/><path d="M232.062,304.647l-13.888,-1.192l-1.176,13.375l13.236,1.604l1.828,-13.787Z" style="fill:#9e9e9e;fill-rule:nonzero;"/><path d="M226.2,351.188l-13.047,-0.997l-1.282,15.521l12.585,1.279l1.744,-15.803Z" style="fill:#9e9e9e;fill-rule:nonzero;"/><path d="M1641.52,-3.401l0,111.63l20.11,83.934c-0,-0 -43.148,12.008 -43.148,12.008l12.503,75.661l-3.93,0.803c0,-0 -191.974,39.222 -222.13,45.384l4.462,25.577l-691.28,133.764l-714.557,-92.47l19.348,-208.038l218.194,18.209l-1.973,-202.901l73.575,-0c0,-0 0.634,85.206 0.634,85.206l265.129,1.955l-0.066,-90.722l1063.13,0Zm-1058.96,4.166l0.066,90.752l-273.432,-2.016l-0.633,-85.176l-65.235,0l1.977,203.267l-218.639,-18.246l-18.594,199.929l709.906,91.868l686.606,-132.86l-4.454,-25.535l226.095,-46.194l-12.46,-75.394l42.881,-11.933l-19.288,-80.506l-0,-107.956l-1054.8,-0Z"/></g><g id="text"><g transform="matrix(12,0,0,12,413.785,329.901)"></g><text x="399.107px" y="329.901px" style="font-family:'ArialMT', 'Arial', sans-serif;font-size:12px;">K1</text><g transform="matrix(12,0,0,12,556.37,350.348)"></g><text x="535.018px" y="350.348px" style="font-family:'ArialMT', 'Arial', sans-serif;font-size:12px;">K21</text><g transform="matrix(12,0,0,12,981.984,267.402)"></g><text x="960.633px" y="267.402px" style="font-family:'ArialMT', 'Arial', sans-serif;font-size:12px;">K24</text><g transform="matrix(12,0,0,12,1007.64,350.348)"></g><text x="986.291px" y="350.348px" style="font-family:'ArialMT', 'Arial', sans-serif;font-size:12px;">K22</text><g transform="matrix(12,0,0,12,1083.4,318.595)"></g><text x="1068.72px" y="318.595px" style="font-family:'ArialMT', 'Arial', sans-serif;font-size:12px;">K2</text><g transform="matrix(12,0,0,12,1268.78,267.402)"></g><text x="1254.1px" y="267.402px" style="font-family:'ArialMT', 'Arial', sans-serif;font-size:12px;">K4</text><g transform="matrix(12,0,0,12,180.71,242.902)"></g><text x="159.358px" y="242.902px" style="font-family:'ArialMT', 'Arial', sans-serif;font-size:12px;">K25</text><g transform="matrix(12,0,0,12,77.8158,258.625)"></g><text x="63.138px" y="258.625px" style="font-family:'ArialMT', 'Arial', sans-serif;font-size:12px;">K3</text><g transform="matrix(12,0,0,12,84.4897,358.973)"></g><text x="63.138px" y="358.973px" style="font-family:'ArialMT', 'Arial', sans-serif;font-size:12px;">K23</text></g><g id="dörrar"><ellipse cx="121.021" cy="295.955" rx="5.946" ry="6.135" style="fill:#f408ee;"/><ellipse cx="188.087" cy="286.547" rx="5.946" ry="6.135" style="fill:#f408ee;"/><ellipse cx="139.237" cy="331.635" rx="5.946" ry="6.135" style="fill:#f408ee;"/><ellipse cx="222.46" cy="288.845" rx="5.946" ry="6.135" style="fill:#f408ee;"/><ellipse cx="308.078" cy="295.369" rx="5.946" ry="6.135" style="fill:#f408ee;"/><ellipse cx="344.532" cy="378.133" rx="5.946" ry="6.135" style="fill:#f408ee;"/><ellipse cx="388.297" cy="390.402" rx="5.946" ry="6.135" style="fill:#f408ee;"/><ellipse cx="451.329" cy="396.537" rx="5.946" ry="6.135" style="fill:#f408ee;"/><ellipse cx="484.547" cy="396.537" rx="5.946" ry="6.135" style="fill:#f408ee;"/><ellipse cx="552.558" cy="400.417" rx="5.946" ry="6.135" style="fill:#f408ee;"/><ellipse cx="513.373" cy="279.805" rx="5.946" ry="6.135" style="fill:#f408ee;"/><ellipse cx="677.025" cy="340.393" rx="5.946" ry="6.135" style="fill:#f408ee;"/><ellipse cx="653.01" cy="307.444" rx="5.946" ry="6.135" style="fill:#f408ee;"/><ellipse cx="292.636" cy="235.757" rx="5.946" ry="6.135" style="fill:#f408ee;"/><ellipse cx="962.727" cy="418.236" rx="5.946" ry="6.135" style="fill:#f408ee;"/><ellipse cx="1137.56" cy="386.414" rx="5.946" ry="6.135" style="fill:#f408ee;"/><ellipse cx="1030.28" cy="382.859" rx="5.946" ry="6.135" style="fill:#f408ee;"/><ellipse cx="1060.19" cy="376.724" rx="5.946" ry="6.135" style="fill:#f408ee;"/><ellipse cx="1036.22" cy="251.69" rx="5.946" ry="6.135" style="fill:#f408ee;"/><ellipse cx="1018.66" cy="223.011" rx="5.946" ry="6.135" style="fill:#f408ee;"/><ellipse cx="1154.03" cy="56.812" rx="5.946" ry="6.135" style="fill:#f408ee;"/><ellipse cx="1154.03" cy="56.812" rx="5.946" ry="6.135" style="fill:#f408ee;"/><ellipse cx="1163.78" cy="14.216" rx="5.946" ry="6.135" style="fill:#f408ee;"/><ellipse cx="1320.14" cy="93.273" rx="5.946" ry="6.135" style="fill:#f408ee;"/><ellipse cx="1342.41" cy="59.11" rx="5.946" ry="6.135" style="fill:#f408ee;"/><ellipse cx="1379.51" cy="210.742" rx="5.946" ry="6.135" style="fill:#f408ee;"/><ellipse cx="1484.59" cy="185.553" rx="5.946" ry="6.135" style="fill:#f408ee;"/><ellipse cx="925.328" cy="320.645" rx="5.946" ry="6.135" style="fill:#f408ee;"/><ellipse cx="908.036" cy="334.388" rx="5.946" ry="6.135" style="fill:#f408ee;"/><ellipse cx="1344.97" cy="200.228" rx="5.946" ry="6.135" style="fill:#f408ee;"/><ellipse cx="1361.68" cy="279.025" rx="5.946" ry="6.135" style="fill:#f408ee;"/><ellipse cx="1599.94" cy="164.613" rx="5.946" ry="6.135" style="fill:#f408ee;"/><ellipse cx="1577.01" cy="124.9" rx="5.946" ry="6.135" style="fill:#f408ee;"/><ellipse cx="1599.94" cy="30.366" rx="5.946" ry="6.135" style="fill:#f408ee;"/></g><g id="trappor"><path d="M288.688,205.305c-0,-1.093 -0.888,-1.98 -1.98,-1.98l-15.842,-0c-1.093,-0 -1.981,0.887 -1.981,1.98l0,15.842c0,1.093 0.888,1.98 1.981,1.98l15.842,0c1.092,0 1.98,-0.887 1.98,-1.98l-0,-15.842Z" style="fill:#ebebeb;"/><path d="M322.378,249.757c0,-1.093 -0.887,-1.98 -1.98,-1.98l-15.842,-0c-1.093,-0 -1.98,0.887 -1.98,1.98l-0,15.842c-0,1.093 0.887,1.98 1.98,1.98l15.842,0c1.093,0 1.98,-0.887 1.98,-1.98l0,-15.842Z" style="fill:#ebebeb;"/><path d="M607.643,424.67c0,-1.092 -0.887,-1.98 -1.98,-1.98l-15.842,0c-1.093,0 -1.98,0.888 -1.98,1.98l-0,15.842c-0,1.093 0.887,1.981 1.98,1.981l15.842,-0c1.093,-0 1.98,-0.888 1.98,-1.981l0,-15.842Z" style="fill:#ebebeb;"/><path d="M849.168,389.532c-0,-2.346 -1.905,-4.251 -4.251,-4.251l-34.007,0c-2.347,0 -4.251,1.905 -4.251,4.251l-0,34.007c-0,2.347 1.904,4.251 4.251,4.251l34.007,0c2.346,0 4.251,-1.904 4.251,-4.251l-0,-34.007Z" style="fill:#ebebeb;"/><path d="M701.036,293.574c-0,-1.386 -1.125,-2.51 -2.511,-2.51l-20.085,-0c-1.386,-0 -2.51,1.124 -2.51,2.51l-0,20.085c-0,1.386 1.124,2.511 2.51,2.511l20.085,-0c1.386,-0 2.511,-1.125 2.511,-2.511l-0,-20.085Z" style="fill:#ebebeb;"/><path d="M1072.59,213.235c0,-1.386 -1.125,-2.511 -2.51,-2.511l-20.086,0c-1.385,0 -2.51,1.125 -2.51,2.511l-0,20.085c-0,1.385 1.125,2.51 2.51,2.51l20.086,0c1.385,0 2.51,-1.125 2.51,-2.51l0,-20.085Z" style="fill:#ebebeb;"/><path d="M1147.62,91.101c-0,-1.385 -1.125,-2.51 -2.511,-2.51l-20.085,-0c-1.385,-0 -2.51,1.125 -2.51,2.51l-0,20.085c-0,1.386 1.125,2.511 2.51,2.511l20.085,-0c1.386,-0 2.511,-1.125 2.511,-2.511l-0,-20.085Z" style="fill:#ebebeb;"/><path d="M1368.01,17.992c-0,-1.386 -1.125,-2.511 -2.511,-2.511l-20.085,0c-1.385,0 -2.51,1.125 -2.51,2.511l-0,20.085c-0,1.386 1.125,2.511 2.51,2.511l20.085,-0c1.386,-0 2.511,-1.125 2.511,-2.511l-0,-20.085Z" style="fill:#ebebeb;"/><path d="M1596.15,5.764c-0,-1.385 -1.125,-2.51 -2.511,-2.51l-20.085,-0c-1.386,-0 -2.511,1.125 -2.511,2.51l0,20.085c0,1.386 1.125,2.511 2.511,2.511l20.085,0c1.386,0 2.511,-1.125 2.511,-2.511l-0,-20.085Z" style="fill:#ebebeb;"/><path d="M1394.59,323.927c-0,-1.386 -1.125,-2.511 -2.511,-2.511l-20.085,0c-1.385,0 -2.51,1.125 -2.51,2.511l-0,20.085c-0,1.386 1.125,2.511 2.51,2.511l20.085,-0c1.386,-0 2.511,-1.125 2.511,-2.511l-0,-20.085Z" style="fill:#ebebeb;"/><path d="M1455.27,114.893c0,-1.385 -1.124,-2.51 -2.51,-2.51l-20.085,-0c-1.386,-0 -2.511,1.125 -2.511,2.51l0,20.085c0,1.386 1.125,2.511 2.511,2.511l20.085,-0c1.386,-0 2.51,-1.125 2.51,-2.511l0,-20.085Z" style="fill:#ebebeb;"/></g></g></svg>