<?xml version="1.0" encoding="UTF-8" standalone="no"?><!DOCTYPE svg PUBLIC "-//W3C//DTD SVG 1.1//EN" "http://www.w3.org/Graphics/SVG/1.1/DTD/svg11.dtd"><svg width="100%" height="100%" viewBox="0 0 551 500" version="1.1" xmlns="http://www.w3.org/2000/svg" xmlns:xlink="http://www.w3.org/1999/xlink" xml:space="preserve" xmlns:serif="http://www.serif.com/" style="fill-rule:evenodd;clip-rule:evenodd;stroke-linejoin:round;stroke-miterlimit:2;"><g id="tappan_05"><g id="salar"><path d="M118.536,163.393l1.763,86.416l-95.197,-0l8.781,-86.416l84.653,-0Z" style="fill:#4fc1e8;fill-rule:nonzero;"/><rect x="191.354" y="289.727" width="72.38" height="69.303" style="fill:#4fc1e8;"/><rect x="191.354" y="359.03" width="72.38" height="61.41" style="fill:#4fc1e8;"/><path d="M264.942,486.572l-1.207,-34.107l-44.309,-0l0,35.101l45.516,-0.994Z" style="fill:#4fc1e8;fill-rule:nonzero;"/><rect x="453.23" y="246.744" width="71.505" height="60.534" style="fill:#4fc1e8;"/><rect x="453.23" y="307.278" width="71.505" height="62.723" style="fill:#4fc1e8;"/><rect x="453.23" y="370.001" width="71.505" height="71.067" style="fill:#4fc1e8;"/></g><g id="studentkök"><path d="M191.354,249.099l72.381,-1.184l-0.746,41.812l-71.635,0l0,-40.628Z" style="fill:#70b62c;fill-rule:nonzero;"/></g><g id="labbsalar"><path d="M38.38,103.959l-4.497,59.434l66.12,-0l0,-58.558l-61.623,-0.876Z" style="fill:#7a4695;fill-rule:nonzero;"/><path d="M173.697,161.854l-73.694,1.539l0,-58.558l60.096,1.977l0.225,14.248l13.373,0.225l0,40.569Z" style="fill:#7a4695;fill-rule:nonzero;"/><path d="M192.999,5.531l0,46.392l15.468,-0l0,23.681l47.705,-0l0,-70.073l-63.173,0Z" style="fill:#7a4695;fill-rule:nonzero;"/><path d="M322.612,76.053l-1.302,-70.522l-65.138,0l0,70.073l66.44,0.449Z" style="fill:#7a4695;fill-rule:nonzero;"/><path d="M220.42,122.93l55.493,0.876l-1.326,67.339l-53.078,-0l-1.089,-68.215Z" style="fill:#7a4695;fill-rule:nonzero;"/><path d="M339.737,122.93l1.313,67.327l-66.463,0.888l1.326,-67.339l63.824,-0.876Z" style="fill:#7a4695;fill-rule:nonzero;"/><path d="M395.773,188.506l-54.723,1.751l-1.313,-67.327l56.036,0.651l0,64.925Z" style="fill:#7a4695;fill-rule:nonzero;"/></g><g id="väggar"><path d="M432.839,178.837l0,9.669l-38.001,-0l0,-10.853l38.001,1.184Z" style="fill-rule:nonzero;"/><path d="M220.42,192.399l0,9.184l-29.882,0l-0,8.367l180.288,-0.189l0,-20.45l-150.406,3.088Z" style="fill-rule:nonzero;"/><path d="M118.536,163.393l0,23.823l20.616,-0.675l-0.686,-23.148l-19.93,-0Z" style="fill-rule:nonzero;"/><path d="M140.04,181.156l-2.225,5.728l35.196,-1.881l-0,-3.847l-32.971,0Z" style="fill-rule:nonzero;"/><path d="M118.536,187.216l9.125,-0l-0.616,22.604l-7.55,0.532l-0.959,-23.136Z" style="fill-rule:nonzero;"/><path d="M191.118,251.229l-70.819,-1.42l0,-1.775l71.055,1.065l-0.236,2.13Z" style="fill-rule:nonzero;"/><path d="M165.969,5.531l26.498,0l-0,3.87l-24.261,-0l-2.237,-3.87Z" style="fill-rule:nonzero;"/><path d="M526.049,186.21l-0,23.551l-7.35,-0l0,-1.894l4.616,0.166l-0.935,-22.663l3.669,0.84Z" style="fill-rule:nonzero;"/><path d="M519.611,246.803l-0.912,-33.894l7.35,-0l-0,-1.965l-9.563,0l0.983,35.859l2.142,0Z" style="fill-rule:nonzero;"/><rect x="191.354" y="422.973" width="6.142" height="64.593"/><path d="M219.426,487.566l-24.995,0l0,-6.698l24.995,1.81l0,4.888Z" style="fill-rule:nonzero;"/><path d="M524.735,490.856l-0,-15.799" style="fill:none;fill-rule:nonzero;"/><path d="M284.682,486.572l240.053,4.284" style="fill:none;fill-rule:nonzero;"/><path d="M347.63,258.2l68.262,-0l0,150.346l-6.58,0l-1.645,-144.82l-61.753,1.468l1.716,-6.994Z" style="fill-rule:nonzero;"/><path d="M393.513,402.25l16.308,0l-0.509,6.296l-15.799,0l-0,-6.296Z" style="fill-rule:nonzero;"/><path d="M393.513,427.505l-0,-18.959l9.799,0l-0.485,18.959l-9.314,0Z" style="fill-rule:nonzero;"/><path d="M376.897,424.322l16.616,-0l-0,3.183l-15.941,0l-0.675,-3.183Z" style="fill-rule:nonzero;"/><path d="M323.795,427.505l-8.379,0l-0.615,-26.118l8.58,-0l0.414,26.118Z" style="fill-rule:nonzero;"/><path d="M315.026,411.197l-17.882,0l-0,-9.81l17.657,-0" style="fill-rule:nonzero;"/><path d="M296.966,300.366l0.178,101.021l12.864,-0l-1.527,-101.021l-11.515,0Z" style="fill-rule:nonzero;"/><path d="M453.23,473.081l0,-10.959" style="fill:none;fill-rule:nonzero;"/><path d="M300.469,450.938l45.445,7.101" style="fill:none;fill-rule:nonzero;"/><path d="M371.098,457.08l46.711,-6.805" style="fill:none;fill-rule:nonzero;"/><path d="M191.354,422.973l0,-1.598l6.142,-0.935l0,2.533l-6.142,-0Z" style="fill-rule:nonzero;"/><path d="M138.466,163.393l35.231,-1.539l0,1.539l-35.231,1.1l-0,-1.1Z" style="fill-rule:nonzero;"/><path d="M44.629,90.847l-1.373,13.112l-4.876,0l0.923,-13.018l5.326,-0.094Z" style="fill-rule:nonzero;"/><path d="M263.735,441.411l-43.421,-0.343" style="fill:none;fill-rule:nonzero;"/><path d="M221.189,434.807l-23.693,0" style="fill:none;fill-rule:nonzero;"/><path d="M221.189,441.411l0,-6.604" style="fill:none;fill-rule:nonzero;"/><path d="M234.669,441.411l-37.173,0.935l0,-21.906l37.173,0l-0,20.971Z" style="fill:#010101;fill-rule:nonzero;"/><path d="M469.053,462.997l16.012,0l0,-11.515l9.539,0l0,-10.544l-26.095,-0.308l0.544,22.367Z" style="fill:#010101;fill-rule:nonzero;"/><path d="M174.206,75.829l-0.189,-25.137l-21.456,0.083l0.627,25.278l21.018,-0.224Z" style="fill:#605137;fill-rule:nonzero;"/><path d="M128.158,30.68l46.048,1.68l0.367,17.859l-46.711,0.556l0.296,-20.095Z" style="fill:#010101;fill-rule:nonzero;"/><path d="M172.608,9.756l0,-0.355" style="fill:none;fill-rule:nonzero;"/><path d="M172.608,18.94l0,-11.054" style="fill:none;fill-rule:nonzero;"/></g><g id="studentfik"><rect x="264.942" y="468.583" width="19.74" height="17.989" style="fill:#d8c749;"/></g><g id="mötesrum"><path d="M377.24,5.531l0,70.522l-54.628,0l-1.302,-70.522l55.93,0Z" style="fill:#e04290;fill-rule:nonzero;"/><rect x="377.24" y="40.786" width="31.468" height="35.255" style="fill:#e04290;"/><rect x="408.709" y="40.786" width="25.007" height="35.255" style="fill:#e04290;"/><rect x="451.644" y="113.829" width="36.249" height="31.362" style="fill:#e04290;"/><path d="M432.839,177.653l-37.066,0l0,-54.072l37.066,-0.651l0,54.723Z" style="fill:#e04290;fill-rule:nonzero;"/><path d="M451.644,145.191l74.405,0l-0,40.131l-74.405,0.888l0,-41.019Z" style="fill:#e04290;fill-rule:nonzero;"/></g><g id="hissar"><circle cx="376.057" cy="201.583" r="3.479" style="fill:#efe52b;"/><ellipse cx="388.862" cy="200.849" rx="2.686" ry="3.397" style="fill:#efe52b;"/><ellipse cx="488.273" cy="458.098" rx="2.663" ry="4" style="fill:#efe52b;"/></g><g id="trappor"><path d="M492.273,441.068l-0,33.989l6.58,-0l-0,-25.918l21.929,0l0,25.918l3.953,-0l-0,-33.989l-32.462,-0Z" style="fill:#324395;fill-rule:nonzero;"/><path d="M318.887,281.935l2.967,-0l4.891,-29.005l16.726,2.637l-8.086,42.68l-33.301,0.043l0.087,-45.36l16.922,-0l-0.206,29.005Z" style="fill:#ca9e67;fill-rule:nonzero;"/><path d="M323.795,424.855l0,16.213l53.102,-0l0,-2.485l-50.936,0.864l-0.106,-12.652l51.042,0.438l0,-2.378l-53.102,-0Z" style="fill:#324395;fill-rule:nonzero;"/><path d="M361.95,88.929l69.457,0l0,21.279l-69.457,0l0,-4.604l66.167,0l-0.047,-12.367l-66.12,-1.893l0,-2.415Z" style="fill:#324395;fill-rule:nonzero;"/><path d="M173.697,185.488l0.722,25.006l-36.604,-0.674l-0,-2.237l33.752,0.769l-0.438,-19.041l-34.273,0.402l0,-3.101l36.841,-1.124Z" style="fill:#324395;fill-rule:nonzero;"/><path d="M219.426,452.465l0,34.107l-28.072,-0l0,-34.107l3.077,-0l0.107,30.379l21.278,0.225l-0.224,-30.604l3.834,-0Z" style="fill:#324395;fill-rule:nonzero;"/></g><g id="restricted"><path d="M128.524,5.531l-0.662,45.244l25.255,-0l0.071,25.278l14.485,0l0,15.516l-128.31,-1.645l7.562,-84.393l81.599,0Z" style="fill:#e52421;fill-rule:nonzero;"/><path d="M487.894,145.191l-0,-69.138l-54.179,0.924l0,-36.191l-56.475,0l0,-35.255l147.495,-0.935l1.314,140.595l-38.155,0Z" style="fill:#e52421;fill-rule:nonzero;"/><rect x="189.816" y="122.93" width="30.592" height="22.924" style="fill:#e52421;"/><rect x="189.816" y="145.842" width="30.592" height="16.225" style="fill:#e52421;"/><path d="M139.152,164.576l0.888,16.58l33.657,0l0,-17.763l-34.545,1.183Z" style="fill:#e52421;fill-rule:nonzero;"/><path d="M419.786,209.761l-23.35,-0.201l-0.663,-21.054l24.013,-0l-0,21.255Z" style="fill:#e52421;fill-rule:nonzero;"/><rect x="129.022" y="5.91" width="45.184" height="25.622" style="fill:#e52421;"/></g><g id="toaletter"><path d="M234.669,420.44l-0,20.628l28.853,-0l0.213,-20.628l-29.066,0Z" style="fill:#605137;fill-rule:nonzero;"/><path d="M472.391,441.068l-0,21.503l-19.161,0l0,-21.385l19.161,-0.118Z" style="fill:#605137;fill-rule:nonzero;"/><path d="M221.047,162.079l0.9,39.504l-31.409,0l-0.71,-39.504l31.219,0Z" style="fill:#605137;fill-rule:nonzero;"/></g><g id="dörrar"><circle cx="264.634" cy="280.745" r="7.468" style="fill:#938dc4;"/><ellipse cx="263.522" cy="344.509" rx="6.355" ry="8.272" style="fill:#938dc4;"/><ellipse cx="264.468" cy="406.523" rx="7.314" ry="6.355" style="fill:#938dc4;"/><circle cx="263.356" cy="462.169" r="4.13" style="fill:#938dc4;"/><circle cx="454.65" cy="388.073" r="7.633" style="fill:#938dc4;"/><ellipse cx="455.609" cy="322.568" rx="8.592" ry="9.539" style="fill:#938dc4;"/><ellipse cx="455.609" cy="270.366" rx="8.592" ry="6.639" style="fill:#938dc4;"/><circle cx="440.993" cy="143.002" r="7.278" style="fill:#938dc4;"/><ellipse cx="452.662" cy="166.411" rx="5.645" ry="6.84" style="fill:#938dc4;"/><circle cx="449.159" cy="120.267" r="6.438" style="fill:#938dc4;"/><circle cx="420.863" cy="76.965" r="4.533" style="fill:#938dc4;"/><ellipse cx="388.874" cy="76.965" rx="6.9" ry="4.533" style="fill:#938dc4;"/><ellipse cx="368.779" cy="74.184" rx="6.84" ry="5.562" style="fill:#938dc4;"/><ellipse cx="306.138" cy="75.852" rx="9.385" ry="5.645" style="fill:#938dc4;"/><circle cx="232.136" cy="76.172" r="7.55" style="fill:#938dc4;"/><circle cx="121.885" cy="215.595" r="5.775" style="fill:#938dc4;"/><ellipse cx="86.855" cy="106.788" rx="7.633" ry="5.089" style="fill:#938dc4;"/><ellipse cx="147.791" cy="107.9" rx="8.639" ry="6.201" style="fill:#938dc4;"/><ellipse cx="261.439" cy="123.238" rx="5.266" ry="6.272" style="fill:#938dc4;"/><ellipse cx="326.92" cy="124.883" rx="5.61" ry="4.615" style="fill:#938dc4;"/><ellipse cx="382.246" cy="122.788" rx="6.627" ry="3.917" style="fill:#938dc4;"/><ellipse cx="419.845" cy="123.238" rx="5.539" ry="6.272" style="fill:#938dc4;"/><ellipse cx="181.756" cy="145.108" rx="8.059" ry="6.355" style="fill:#938dc4;"/><ellipse cx="263.356" cy="446.772" rx="5.337" ry="4.84" style="fill:#938dc4;"/><circle cx="130.205" cy="203.796" r="4.568" style="fill:#938dc4;"/><ellipse cx="487.125" cy="489.069" rx="6.012" ry="8.012" style="fill:#938dc4;"/><circle cx="523.978" cy="483.424" r="4.698" style="fill:#938dc4;"/><ellipse cx="452.485" cy="479.01" rx="5.468" ry="6.474" style="fill:#938dc4;"/></g><g id="text"><text x="229.367px" y="475.116px" style="font-family:'ArialMT', 'Arial', sans-serif;font-size:18.935px;">TP501</text><text x="203.61px" y="385.575px" style="font-family:'ArialMT', 'Arial', sans-serif;font-size:18.935px;">TP54</text><text x="203.61px" y="325.515px" style="font-family:'ArialMT', 'Arial', sans-serif;font-size:18.935px;">TP52</text><text x="476.698px" y="411.233px" style="font-family:'ArialMT', 'Arial', sans-serif;font-size:18.935px;">TP55</text><text x="476.698px" y="336.438px" style="font-family:'ArialMT', 'Arial', sans-serif;font-size:18.935px;">TP53</text><text x="476.698px" y="274.591px" style="font-family:'ArialMT', 'Arial', sans-serif;font-size:18.935px;">TP51</text><text x="203.61px" y="273.265px" style="font-family:'ArialMT', 'Arial', sans-serif;font-size:18.935px;">TP5086</text><text x="58.665px" y="213.938px" style="font-family:'ArialMT', 'Arial', sans-serif;font-size:18.935px;">TP56</text><text x="118.867px" y="131.925px" style="font-family:'ArialMT', 'Arial', sans-serif;font-size:18.935px;">TP5003</text><text x="54.582px" y="131.925px" style="font-family:'ArialMT', 'Arial', sans-serif;font-size:18.935px;">TP5004</text><text x="230.503px" y="158.914px" style="font-family:'ArialMT', 'Arial', sans-serif;font-size:18.935px;">TP5023</text><text x="289.286px" y="158.914px" style="font-family:'ArialMT', 'Arial', sans-serif;font-size:18.935px;">TP5022</text><text x="354.861px" y="158.914px" style="font-family:'ArialMT', 'Arial', sans-serif;font-size:18.935px;">TP5021</text><text x="402.969px" y="158.914px" style="font-family:'ArialMT', 'Arial', sans-serif;font-size:18.935px;">TP502</text><g transform="matrix(0.95057,0,0,1,22.8026,0)"><g transform="matrix(15.3647,0,0,15.3647,510.833,170.153)"></g><text x="461.311px" y="170.153px" style="font-family:'ArialMT', 'Arial', sans-serif;font-size:15.365px;">TPM55</text></g><g transform="matrix(10.2896,0,0,10.2896,488.722,132.605)"></g><text x="455.557px" y="132.605px" style="font-family:'ArialMT', 'Arial', sans-serif;font-size:10.29px;">TPM54</text><g transform="matrix(1,0,0,0.971151,0,1.94895)"><g transform="matrix(8.99869,0,0,8.99869,436.044,67.5561)"></g><text x="407.039px" y="67.556px" style="font-family:'ArialMT', 'Arial', sans-serif;font-size:8.999px;">TPM53</text></g><g transform="matrix(1,0,0,0.971151,0,1.57891)"><g transform="matrix(8.99869,0,0,8.99869,405.992,54.7294)"></g><text x="376.988px" y="54.729px" style="font-family:'ArialMT', 'Arial', sans-serif;font-size:8.999px;">TPM52</text></g><g transform="matrix(1,0,0,0.971151,-5.68434e-14,1.2116)"><g transform="matrix(12.3987,0,0,12.3987,372.143,41.9975)"></g><text x="332.18px" y="41.998px" style="font-family:'ArialMT', 'Arial', sans-serif;font-size:12.399px;">TPM51</text></g><text x="268.778px" y="41.998px" style="font-family:'ArialMT', 'Arial', sans-serif;font-size:12.041px;">TP5016</text><g transform="matrix(12.741,0,0,12.741,251.192,41.8394)"></g><text x="206.568px" y="41.839px" style="font-family:'ArialMT', 'Arial', sans-serif;font-size:12.741px;">TP5015</text></g></g></svg>