<?xml version="1.0" encoding="UTF-8" standalone="no"?><!DOCTYPE svg PUBLIC "-//W3C//DTD SVG 1.1//EN" "http://www.w3.org/Graphics/SVG/1.1/DTD/svg11.dtd"><svg width="100%" height="100%" viewBox="0 0 551 500" version="1.1" xmlns="http://www.w3.org/2000/svg" xmlns:xlink="http://www.w3.org/1999/xlink" xml:space="preserve" xmlns:serif="http://www.serif.com/" style="fill-rule:evenodd;clip-rule:evenodd;stroke-linejoin:round;stroke-miterlimit:2;"><g id="tappan_04" opacity="0.46"><g id="salar"><path d="M454.166,312.093l69.363,-0.107l0.282,-65.568l-5.858,-0l0,-0.918l-64.058,-0l0.271,66.593Z" style="fill:#662483;fill-rule:nonzero;"/><path d="M454.166,375.601l69.091,-0.022l0.272,-63.593l-69.363,0.107l0,63.508Z" style="fill:#662483;fill-rule:nonzero;"/><path d="M454.166,441.852l68.591,0l0.5,-66.273l-69.091,0.022l0,66.251Z" style="fill:#662483;fill-rule:nonzero;"/><path d="M262.436,289.589l-70.568,0l0.391,-41.004l70.156,0.395l0.021,40.609Z" style="fill:#662483;fill-rule:nonzero;"/><path d="M262.436,289.589l0.055,64.8l-71.254,-0.203l0.631,-64.597l70.568,0Z" style="fill:#662483;fill-rule:nonzero;"/><path d="M262.491,354.389l0.043,67.276l-67.645,-0.053l-0.12,-24.82l-3.945,-0l0.413,-42.606l71.254,0.203Z" style="fill:#662483;fill-rule:nonzero;"/><path d="M302.345,452.634l0.207,33.959l37.517,0.448l0,-34.342l-37.724,-0.065Z" style="fill:#662483;fill-rule:nonzero;"/><path d="M340.069,452.699l37.247,0.074l-0,34.717l-37.247,-0.449l0,-34.342Z" style="fill:#662483;fill-rule:nonzero;"/><path d="M414.942,452.837l-0.076,35.09l-37.55,-0.437l-0,-34.717l37.626,0.064Z" style="fill:#662483;fill-rule:nonzero;"/><path d="M262.349,453.777l0,32.239l-41.778,-0.288l0,-31.951l41.778,-0Z" style="fill:#662483;fill-rule:nonzero;"/><path d="M457.862,178.042l11.814,-0l-0,1.943l54.037,-0.064l0.055,-69.337l-57.581,0l-8.325,11.754l-0,55.704Z" style="fill:#662483;fill-rule:nonzero;"/><path d="M466.187,110.584l57.602,0l0,-72.23l-65.667,0l0,35.635c0,-0 16.39,9.608 8.065,36.595Z" style="fill:#662483;fill-rule:nonzero;"/><path d="M433.114,74.469l0,-70.884l-37.398,0.192l-0,70.692l37.398,0Z" style="fill:#e30613;fill-rule:nonzero;"/><path d="M339.667,74.395l56.049,0.074l-0,-70.692l-56.049,0.288l0,70.33Z" style="fill:#e30613;fill-rule:nonzero;"/><path d="M265.512,74.469l74.155,-0.074l0,-70.33l-74.155,0.384l0,70.02Z" style="fill:#e30613;fill-rule:nonzero;"/><path d="M190.585,74.395l74.927,0.074l0,-70.02l-74.927,0.385l0,69.561Z" style="fill:#e30613;fill-rule:nonzero;"/><path d="M358.187,121.281l-64.787,-0.021l0,67.415l64.787,-0l0,-67.394Z" style="fill:#662483;fill-rule:nonzero;"/><path d="M228.462,121.227l64.938,0.033l0,67.415l-64.938,-0l-0,-67.448Z" style="fill:#e30613;fill-rule:nonzero;"/><path d="M190.585,121.217l37.877,0.01l-0,28.813l-37.877,0l0,-28.823Z" style="fill:#e30613;fill-rule:nonzero;"/><rect x="190.585" y="150.04" width="37.876" height="28.215" style="fill:#e30613;"/><path d="M358.187,121.281l37.322,-0.021l0,33.702l-37.322,-0l0,-33.681Z" style="fill:#e30613;fill-rule:nonzero;"/><path d="M433.114,121.313l-37.605,-0.053l0,33.702l37.605,-0l0,-33.649Z" style="fill:#e30613;fill-rule:nonzero;"/><path d="M358.187,154.962l0,33.713l61.331,-0l-0,-4.025l13.596,-0.278l0,-29.41l-74.927,-0Z" style="fill:#e30613;fill-rule:nonzero;"/><path d="M173.239,162.232l-60.7,0.405l-0,-52.469l49.462,-0l0.141,11.049l11.097,-0l0,41.015Z" style="fill:#e30613;fill-rule:nonzero;"/><path d="M112.539,162.637l31.91,-0.213l-0,23.795l-31.91,0l-0,-23.582Z" style="fill:#e30613;fill-rule:nonzero;"/><path d="M98.388,183.711l-64.949,-0l-5.272,63.71l70.363,0.15l-0.142,-63.86Z" style="fill:#662483;fill-rule:nonzero;"/><path d="M98.388,183.711l-64.949,-0l0.576,-6.982l-1.587,-0l4.934,-60.167l61.081,0l-0.055,67.149Z" style="fill:#662483;fill-rule:nonzero;"/><path d="M98.443,116.562l-61.081,0l2.467,-30.147l1.402,0l3.467,-42.168l53.69,0l0.055,72.315Z" style="fill:#662483;fill-rule:nonzero;"/><path d="M98.388,44.247l-53.69,0l3.152,-38.389l38.018,-0.17l0.228,28.631l12.292,0l0,9.928Z" style="fill:#e30613;fill-rule:nonzero;"/><path d="M369.882,188.675l-0,20.849l-142.562,0.341l0,-20.037l1.142,-0l-0,-1.153l141.42,-0Z" style="fill:#e30613;fill-rule:nonzero;"/><rect x="112.539" y="43.052" width="49.397" height="42.798" style="fill:#e30613;"/><path d="M112.539,43.052l-0,-8.733l14.118,0l0,-6.32l46.582,0l0,15.053l-60.7,-0Z" style="fill:#e30613;fill-rule:nonzero;"/><path d="M505.922,179.942l-0,24.329l16.096,-0.064l-0.076,-24.286l-16.02,0.021Z" style="fill:#e30613;fill-rule:nonzero;"/><path d="M233.722,442.824l-12.368,-0l-0,-0.95l-0.555,-0.011l-0.032,-8.423l-2.402,0l-0,-11.775l15.357,0l-0,21.159Z" style="fill:#e30613;fill-rule:nonzero;"/><g transform="matrix(1,0,0,0.982239,0,3.84475)"><text x="46.155px" y="216.473px" style="font-family:'ArialMT', 'Arial', sans-serif;font-size:6.521px;">TP4003</text></g><g transform="matrix(1,0,0,0.982239,0,2.73367)"><text x="52.6px" y="153.916px" style="font-family:'ArialMT', 'Arial', sans-serif;font-size:6.521px;">TP4004</text></g><g transform="matrix(1,0,0,0.982239,0,1.43754)"><text x="59.055px" y="80.939px" style="font-family:'ArialMT', 'Arial', sans-serif;font-size:6.521px;">TP4005</text></g><g transform="matrix(1,0,0,0.982239,-5.68434e-14,2.67925)"><text x="314.214px" y="150.852px" style="font-family:'ArialMT', 'Arial', sans-serif;font-size:6.521px;">TP4033</text></g><g transform="matrix(1,0,0,0.982239,0,1.34311)"><text x="478.62px" y="75.622px" style="font-family:'ArialMT', 'Arial', sans-serif;font-size:6.521px;">TP4040</text></g><g transform="matrix(1,0,0,0.982239,0,2.55222)"><text x="479.033px" y="143.699px" style="font-family:'ArialMT', 'Arial', sans-serif;font-size:6.521px;">TP4041</text></g></g><g id="väggar"><path d="M522.496,3.937l0.217,34.417l1.109,0l-0.109,141.567l-1.771,-0l0.076,24.286l0.761,0l0.097,3.31l-4.923,-0l0,1.697l7.706,0l-0,-205.277l-3.163,-0Z" style="fill-rule:nonzero;"/><path d="M517.953,209.214l0,37.204l7.706,-0l-0,-1.783l-6.782,-0.032l-0.033,-35.389l-0.891,0Z" style="fill-rule:nonzero;"/><path d="M523.811,246.418l-1.054,244.456l2.445,-0l0.457,-244.456l-1.848,-0Z" style="fill-rule:nonzero;"/><path d="M522.757,490.874l-332.585,-3.694l0,-2.743l30.377,-0l0.022,1.291l81.013,0.545l-0.032,0.309l168.852,2.007l-0.033,-1.259l52.386,1.024l-0,2.52Z" style="fill-rule:nonzero;"/><path d="M221.354,442.824l-2.185,-0l0,-8.135l-25.671,0.032l-0,-1.281l27.269,0l0.032,8.423l0.555,0.011l-0,0.95Z" style="fill-rule:nonzero;"/><path d="M197.345,484.437l-0.076,-49.726l-1.717,0.01l-0,49.716l1.793,-0Z" style="fill-rule:nonzero;"/><path d="M193.498,433.44l0.022,-35.175l1.249,-0l0.12,35.175l-1.391,0Z" style="fill-rule:nonzero;"/><path d="M194.769,398.265l0,-1.473l-5.684,-0l0,3.618l1.967,0l0.011,-2.145l3.706,-0Z" style="fill-rule:nonzero;"/><path d="M189.085,396.792l1.337,-147.033l1.837,0l-1.435,147.033l-1.739,-0Z" style="fill-rule:nonzero;"/><path d="M190.422,249.759l-165.135,-0.427l0,-1.911l237.128,0.502l-0,1.057l-70.156,-0.395l-0,1.174l-1.837,0Z" style="fill-rule:nonzero;"/><path d="M28.167,247.421l5.848,-70.692l-1.587,-0l-5.717,70.692l1.456,0Z" style="fill-rule:nonzero;"/><path d="M32.243,179.024l-1.739,-0.651l7.597,-94.275l1.924,0l-7.782,94.926Z" style="fill-rule:nonzero;"/><path d="M39.829,86.415l1.402,0l6.619,-80.557l-1.402,0l-6.423,78.24l-0.196,2.317Z" style="fill-rule:nonzero;"/><path d="M46.448,5.858l-1.369,0l-0,-2.135l43.636,-0.16l0.131,27.98l34.833,0.182l0,-24.553l-6.804,0.021l0.022,-3.929l9.76,0l0,31.055l-40.561,0l-0.228,-28.631l-39.42,0.17Z" style="fill-rule:nonzero;"/><rect x="88.715" y="4.044" width="28.171" height="0.939"/><path d="M126.657,6.296l45.039,-0.277l-0,1.334l1.956,0l0,-2.434l295.621,-1.527l0,-1.953l-342.616,1.825l0,3.032Z" style="fill-rule:nonzero;"/><path d="M522.496,3.937l-51.571,0.245l0.011,16.9l3.75,-0l0.032,-1.708l1.044,-0l0.022,2.914l-4.75,-0l0.011,3.469l-0.88,0l-0.033,-3.277l-1.011,0.011l0.152,-19.099l0,-1.953l56.386,-0.224l-0,2.722l-3.163,-0Z" style="fill-rule:nonzero;"/><rect x="447.004" y="485.109" width="1.587" height="3.203"/><path d="M446.895,477.252l0,-13.195l16.988,0l0.032,-22.205l58.842,0l-0,1.42l-28.367,-0.032l-0.076,26.956l-1.489,-0.022l-0.108,-19.685l-11.13,0.064l0.033,18.329l2.587,0.032l-0.033,1.228l-3.837,-0.053l-32.485,0.042l0.054,7.121l-1.011,-0Z" style="fill-rule:nonzero;"/><path d="M319.876,426.512l81.589,-0l0,-23.657l-6.923,0l0.152,22.899l-72.612,-0.107l-0.119,-22.664l-2.087,0.054l-0,23.475Z" style="fill-rule:nonzero;"/><path d="M319.876,405.129l-20.161,-0l-0.304,-105.964l1.065,-0l0.206,103.818l19.194,0.054l-0,2.092Z" style="fill-rule:nonzero;"/><path d="M401.465,405.033l15.444,-0l0.109,-147.374l-1.38,0l0.163,145.196l-14.336,0l0,2.178Z" style="fill-rule:nonzero;"/><path d="M302.171,252.93l-1.456,-0l-0.239,46.235l-0,1.548l37.713,-0.096l8.249,-45.072l-2.967,0.022l-8.086,42.68l-33.301,0.043l0.087,-45.36Z" style="fill-rule:nonzero;"/><path d="M415.638,258.631l-69.787,0.096l0.185,-0.993l69.602,0.139l-0,0.758Z" style="fill-rule:nonzero;"/><rect x="112.539" y="186.219" width="14.227" height="23.582"/><rect x="219.093" y="178.245" width="9.369" height="11.583"/><path d="M227.32,189.828l0,20.037l-36.833,0l0,-10.494l1.283,0l-0,2.242l29.268,-0.128l0.033,-11.657l6.249,-0Z" style="fill-rule:nonzero;"/><path d="M517.953,209.214l-49.56,0l0,-8.828l1.456,-0l0,1.473l36.073,0.032l-0,2.38l16.857,-0.064l0.097,3.31l-4.923,-0l0,1.697Z" style="fill-rule:nonzero;"/><path d="M194.889,433.44l0,-11.828l23.476,0.053l-0,11.775l-23.476,0Z" style="fill-rule:nonzero;"/><path d="M488.141,25.757l34.496,0l0.076,12.597l-19.9,0l-0.054,-11.123l-14.618,-0.107l-0,-1.367Z" style="fill-rule:nonzero;"/><rect x="457.862" y="178.042" width="11.814" height="6.341"/><rect x="161.936" y="71.95" width="11.238" height="2.519"/><path d="M135.156,207.89l36.214,0l-0,-21.671l1.869,0l0,23.572l-10.129,-0l0.011,-0.716l-27.965,-0.064l0,-1.121Z" style="fill-rule:nonzero;"/><path d="M88.715,4.983l0.131,26.56l34.833,0.182l0,-24.553l-6.804,0.021l0.011,-2.21l-28.171,0Z" style="fill-rule:nonzero;"/><rect x="171.696" y="26.43" width="1.543" height="1.569"/><rect x="171.696" y="7.353" width="1.956" height="11.551"/><path d="M220.571,451.556l0,2.221l-0.022,30.66l-1.662,-0l-0,-32.881l1.684,0Z" style="fill-rule:nonzero;"/></g><g id="toaletter"><path d="M469.676,179.985l-0,12.106l36.246,-0l-0,-12.149l-36.246,0.043Z" style="fill:#009fe3;fill-rule:nonzero;"/><path d="M446.895,464.057l16.988,0l0.032,-22.205l-17.02,0l0,22.205Z" style="fill:#009fe3;fill-rule:nonzero;"/><path d="M233.722,442.824l28.823,-0l-0,-11.167l-28.823,-0.235l-0,11.402Z" style="fill:#009fe3;fill-rule:nonzero;"/><path d="M219.093,189.828l-28.367,-0l-0.141,-11.583l28.508,-0l0,11.583Z" style="fill:#009fe3;fill-rule:nonzero;"/><rect x="144.449" y="173.58" width="28.79" height="12.64" style="fill:#009fe3;"/><path d="M161.936,71.95l11.238,-0l-0,-8.861l-11.238,-0.106l-0,8.967Z" style="fill:#009fe3;fill-rule:nonzero;"/><path d="M161.936,51.336l11.238,-0l0.065,-8.284l-11.303,-0l-0,8.284Z" style="fill:#009fe3;fill-rule:nonzero;"/></g><g id="hissar"><path d="M481.62,468.882l11.205,0l-0.108,-18.393l-11.13,0.064l0.033,18.329Z" style="fill:#e6007e;fill-rule:nonzero;"/><rect x="369.882" y="188.675" width="12.749" height="19.162" style="fill:#e6007e;"/><rect x="382.63" y="188.675" width="13.02" height="19.162" style="fill:#e6007e;"/><rect x="395.651" y="188.675" width="23.867" height="19.162" style="fill:#e6007e;"/><path d="M502.759,27.231l0.054,11.123l-13.737,0l-0,-11.219l13.683,0.096Z" style="fill:#e6007e;fill-rule:nonzero;"/><path d="M475.762,19.374l-0,-15.213l-4.837,0.021l0.011,16.9l3.75,-0l0.032,-1.708l1.044,-0Z" style="fill-rule:nonzero;"/></g><g id="trappor"><path d="M522.757,472.544l-10.282,0l0,-19.152l-7.629,0l-0,19.152l-10.336,0l-0.12,-29.304l28.367,0.032l-0,29.272Z" style="fill:#b17f4a;fill-rule:nonzero;"/><path d="M197.345,451.556l0,32.881l21.542,-0l-0,-32.881l-10.304,0l0.218,22.846l-1.37,0.053l0,-22.899l-10.086,0Z" style="fill:#b17f4a;fill-rule:nonzero;"/><path d="M161.686,198.005l-23.204,-0l-0,9.885l32.888,0l-0,-21.671l-32.888,0l-0,10.836l23.204,-0l-0,0.95Z" style="fill:#b17f4a;fill-rule:nonzero;"/><path d="M318.887,281.935l2.967,-0l4.891,-29.005l16.726,2.637l-8.086,42.68l-33.301,0.043l0.087,-45.36l16.922,-0l-0.206,29.005Z" style="fill:#ca9e67;fill-rule:nonzero;"/><path d="M171.696,27.999l-0,-21.98l-45.039,0.277l0,21.703l45.039,0Z" style="fill:#e30613;fill-rule:nonzero;"/><path d="M512.41,15.488l0,-0.95l-22.824,-0l0,-10.441l32.91,-0.16l0.141,21.82l-33.051,0l0,-10.333l22.824,0.064Z" style="fill:#b17f4a;fill-rule:nonzero;"/><path d="M328.712,429.821l46.615,0l-0,11.38l-46.615,-0.48l-0,-10.9Z" style="fill:#ca9e67;fill-rule:nonzero;"/><rect x="360.48" y="96.407" width="55.635" height="10.558" style="fill:#ca9e67;"/></g><g id="dörrar"><ellipse cx="219.984" cy="447.478" rx="2.761" ry="5.444" style="fill:#009640;"/><ellipse cx="261.556" cy="447.831" rx="2.652" ry="6.843" style="fill:#009640;"/><ellipse cx="237.808" cy="431.583" rx="2.032" ry="1.858" style="fill:#009640;"/><ellipse cx="247.123" cy="431.465" rx="2.424" ry="1.986" style="fill:#009640;"/><ellipse cx="258.067" cy="431.7" rx="2.206" ry="1.975" style="fill:#009640;"/><ellipse cx="262.578" cy="409.912" rx="2.304" ry="4.783" style="fill:#009640;"/><ellipse cx="262.491" cy="343.927" rx="2.913" ry="5.114" style="fill:#009640;"/><ellipse cx="262.697" cy="280.942" rx="3.119" ry="5.338" style="fill:#009640;"/><ellipse cx="261.947" cy="460.855" rx="2.261" ry="4.494" style="fill:#009640;"/><ellipse cx="331.168" cy="452.634" rx="5.206" ry="3.01" style="fill:#009640;"/><ellipse cx="368.686" cy="452.634" rx="4.108" ry="2.605" style="fill:#009640;"/><ellipse cx="404.856" cy="452.432" rx="4.38" ry="2.808" style="fill:#009640;"/><ellipse cx="446.515" cy="449.186" rx="2.445" ry="3.758" style="fill:#009640;"/><ellipse cx="448.026" cy="480.743" rx="2.391" ry="5.466" style="fill:#009640;"/><ellipse cx="453.699" cy="389.159" rx="3.38" ry="5.775" style="fill:#009640;"/><ellipse cx="454.166" cy="324.914" rx="2.5" ry="5.21" style="fill:#009640;"/><ellipse cx="454.275" cy="269.21" rx="3.641" ry="5.925" style="fill:#009640;"/><ellipse cx="473.316" cy="192.112" rx="2.467" ry="1.74" style="fill:#009640;"/><ellipse cx="483.718" cy="192.112" rx="2.391" ry="1.74" style="fill:#009640;"/><ellipse cx="493.39" cy="191.877" rx="2.576" ry="1.975" style="fill:#009640;"/><ellipse cx="501.933" cy="191.877" rx="2.706" ry="1.975" style="fill:#009640;"/><ellipse cx="506.476" cy="196.713" rx="2.25" ry="2.861" style="fill:#009640;"/><ellipse cx="445.635" cy="183.39" rx="14.053" ry="2.626" style="fill:#009640;"/><ellipse cx="433.288" cy="163.972" rx="2.674" ry="4.195" style="fill:#009640;"/><path d="M462.223,113.486c2.185,-3.25 4.817,-5.333 5.873,-4.647c1.056,0.685 0.139,3.879 -2.046,7.129c-2.184,3.25 -4.816,5.332 -5.872,4.647c-1.056,-0.685 -0.14,-3.88 2.045,-7.129Z" style="fill:#009640;"/><path d="M458.935,74.297c0.921,-0.659 3.453,1.209 5.652,4.171c2.198,2.961 3.235,5.9 2.314,6.56c-0.92,0.659 -3.453,-1.209 -5.651,-4.17c-2.199,-2.961 -3.236,-5.901 -2.315,-6.561Z" style="fill:#009640;"/><ellipse cx="470.61" cy="31.245" rx="2.108" ry="7.441" style="fill:#009640;"/><ellipse cx="423.3" cy="121.003" rx="4.684" ry="2.519" style="fill:#009640;"/><ellipse cx="386.282" cy="121.174" rx="4.999" ry="2.349" style="fill:#009640;"/><ellipse cx="415.073" cy="74.736" rx="5.412" ry="1.569" style="fill:#009640;"/><ellipse cx="350.634" cy="73.893" rx="5.478" ry="2.829" style="fill:#009640;"/><ellipse cx="326.734" cy="120.971" rx="5.097" ry="2.551" style="fill:#009640;"/><ellipse cx="275.739" cy="73.338" rx="5.586" ry="2.765" style="fill:#009640;"/><ellipse cx="262.773" cy="120.459" rx="5.858" ry="3.064" style="fill:#009640;"/><ellipse cx="201.062" cy="73.754" rx="5.336" ry="3.171" style="fill:#009640;"/><ellipse cx="218.441" cy="120.502" rx="3.989" ry="2.349" style="fill:#009640;"/><ellipse cx="190.618" cy="157.801" rx="1.772" ry="3.747" style="fill:#009640;"/><ellipse cx="196.726" cy="189.902" rx="2.532" ry="1.836" style="fill:#009640;"/><ellipse cx="204.355" cy="189.422" rx="2.532" ry="1.708" style="fill:#009640;"/><ellipse cx="213.648" cy="189.561" rx="2.467" ry="1.836" style="fill:#009640;"/><ellipse cx="130.646" cy="208.018" rx="5.13" ry="2.519" style="fill:#009640;"/><ellipse cx="105.746" cy="203.428" rx="8.673" ry="2.765" style="fill:#009640;"/><ellipse cx="99.225" cy="193.03" rx="2.424" ry="4.975" style="fill:#009640;"/><ellipse cx="113.028" cy="173.676" rx="2.358" ry="5.455" style="fill:#009640;"/><ellipse cx="147.883" cy="173.441" rx="2.945" ry="1.665" style="fill:#009640;"/><ellipse cx="157.306" cy="173.441" rx="3.108" ry="1.665" style="fill:#009640;"/><ellipse cx="166.892" cy="173.441" rx="3.293" ry="1.665" style="fill:#009640;"/><ellipse cx="99.323" cy="132.725" rx="3.021" ry="5.797" style="fill:#009640;"/><ellipse cx="98.845" cy="100.667" rx="2.532" ry="6.298" style="fill:#009640;"/><ellipse cx="99.149" cy="39.294" rx="2.424" ry="3.768" style="fill:#009640;"/><ellipse cx="147.264" cy="109.794" rx="6.075" ry="3.779" style="fill:#009640;"/><ellipse cx="146.851" cy="85.134" rx="6.075" ry="2.968" style="fill:#009640;"/><ellipse cx="165.686" cy="63.089" rx="2.424" ry="1.836" style="fill:#009640;"/><ellipse cx="165.577" cy="51.165" rx="2.326" ry="2.039" style="fill:#009640;"/><ellipse cx="173.793" cy="38.173" rx="2.087" ry="3.854" style="fill:#009640;"/><ellipse cx="172.674" cy="22.235" rx="2.185" ry="4.526" style="fill:#009640;"/><ellipse cx="182.021" cy="179.366" rx="9.608" ry="2.551" style="fill:#009640;"/><ellipse cx="292.357" cy="209.78" rx="3.75" ry="1.377" style="fill:#009640;"/></g><g id="text"><g transform="matrix(1,0,0,0.982239,-2.84217e-14,8.3541)"><text x="226.69px" y="470.366px" style="font-family:'ArialMT', 'Arial', sans-serif;font-size:6.521px;">TP404</text></g><g transform="matrix(1,0,0,0.982239,0,8.3941)"><text x="307.887px" y="472.619px" style="font-family:'ArialMT', 'Arial', sans-serif;font-size:6.521px;">TP403</text></g><g transform="matrix(1,0,0,0.982239,0,8.41761)"><text x="346.383px" y="473.943px" style="font-family:'ArialMT', 'Arial', sans-serif;font-size:6.521px;">TP402</text></g><g transform="matrix(1,0,0,0.982239,0,8.41761)"><text x="384.618px" y="473.943px" style="font-family:'ArialMT', 'Arial', sans-serif;font-size:6.521px;">TP401</text></g><g transform="matrix(1,0,0,0.982239,0,7.29023)"><text x="470.295px" y="410.467px" style="font-family:'ArialMT', 'Arial', sans-serif;font-size:6.521px;">TP45</text></g><g transform="matrix(1,0,0,0.982239,0,6.10672)"><text x="475.914px" y="343.831px" style="font-family:'ArialMT', 'Arial', sans-serif;font-size:6.521px;">TP43</text></g><g transform="matrix(1,0,0,0.982239,-5.68434e-14,4.98483)"><text x="476.544px" y="280.665px" style="font-family:'ArialMT', 'Arial', sans-serif;font-size:6.521px;">TP41</text></g><g transform="matrix(1,0,0,0.982239,-2.84217e-14,6.96183)"><text x="218.887px" y="391.977px" style="font-family:'ArialMT', 'Arial', sans-serif;font-size:6.521px;">TP44</text></g><g transform="matrix(1,0,0,0.982239,0,5.81151)"><text x="217.224px" y="327.209px" style="font-family:'ArialMT', 'Arial', sans-serif;font-size:6.521px;">TP42</text></g><g transform="matrix(1,0,0,0.982239,0,4.79485)"><text x="218.365px" y="269.968px" style="font-family:'ArialMT', 'Arial', sans-serif;font-size:6.521px;">TP40</text></g></g></g></svg>