<?xml version="1.0" encoding="UTF-8" standalone="no"?><!DOCTYPE svg PUBLIC "-//W3C//DTD SVG 1.1//EN" "http://www.w3.org/Graphics/SVG/1.1/DTD/svg11.dtd"><svg width="100%" height="100%" viewBox="0 0 1674 500" version="1.1" xmlns="http://www.w3.org/2000/svg" xmlns:xlink="http://www.w3.org/1999/xlink" xml:space="preserve" xmlns:serif="http://www.serif.com/" style="fill-rule:evenodd;clip-rule:evenodd;stroke-linejoin:round;stroke-miterlimit:2;"><g id="kaken_04.svg" opacity="0.53"><g id="digimaker"><path d="M1048.4,144.973l10.43,57.53l-59.514,13.451l-11.445,-71.996l60.529,1.015Z" style="fill:#951b81;fill-rule:nonzero;"/></g><g id="restricted"><path d="M937.949,228.964l17.023,100.749l11.356,-1.83l0.639,6.218l178.809,-31.753l-7.696,-58.324l-42.116,3.661l-5.976,-51.445l-152.039,32.724Z" style="fill:#e30613;fill-rule:nonzero;"/><path d="M899.625,455.975l268.334,-42.514l262.27,-61.477l-7.365,-18.192l9.835,-1.477l-38.148,-156.824l-265.489,14.884l9.018,53.649l7.696,58.324l-178.809,31.753l5.094,52.525l-25.865,4.101l-2.977,-30.254l-57.398,10.982l13.804,84.52Z" style="fill:#e30613;fill-rule:nonzero;"/><path d="M820.309,322.877l-74.642,13.914l-11.819,-73.34l76.362,-11.422l10.099,70.848Z" style="fill:#e30613;fill-rule:nonzero;"/><path d="M1343.09,9.692l0.926,55.193l48.666,-0.132l1.874,110.738l274.905,-57.001l-3.44,-110.452l-322.931,1.654Z" style="fill:#e30613;fill-rule:nonzero;"/><path d="M1130.32,64.686l59.008,1.213l-0,64.057l-60.331,2.139l1.323,-67.409Z" style="fill:#e30613;fill-rule:nonzero;"/><path d="M1063.46,166.56l18.037,-0.617l0,20.022l-17.574,-0.022l-0.463,-19.383Z" style="fill:#e30613;fill-rule:nonzero;"/><path d="M941.256,356.681l26.792,-4.366l4.013,34.311l-25.865,4.101l-4.94,-34.046Z" style="fill:#e30613;fill-rule:nonzero;"/><path d="M875.149,206.296l1.08,19.051l35.435,-2.668l1.456,7.74l-98.324,21.61l-0.838,-56.274l24.168,0.221l0.066,2.734l37.023,-0.772l-0.066,8.358Z" style="fill:#e30613;fill-rule:nonzero;"/></g><g id="clinicum"><path d="M536.583,290.97l38.28,3.815l-2.888,22.138l-1.654,12.79l-38.037,-1.764l4.299,-36.979Z" style="fill:#2fac66;fill-rule:nonzero;"/><path d="M595.811,318.004l-6.637,57.684l-64.74,-8.599l7.85,-39.14l38.037,1.764l1.654,-12.79l23.836,1.081Z" style="fill:#2fac66;fill-rule:nonzero;"/><path d="M510.564,429.382l8.423,-63.55l70.187,9.856l-7.85,62.779l-70.76,-9.085Z" style="fill:#2fac66;fill-rule:nonzero;"/><path d="M601.853,441.576l-20.529,-3.109l7.85,-62.779l21.058,2.272l-8.379,63.616Z" style="fill:#2fac66;fill-rule:nonzero;"/><path d="M499.384,362.943l19.603,2.889l-8.423,63.55l-19.802,-3.903l8.622,-62.536Z" style="fill:#2fac66;fill-rule:nonzero;"/><path d="M428.844,353.219l-8.754,64.145l70.672,8.115l8.622,-62.536l-70.54,-9.724Z" style="fill:#2fac66;fill-rule:nonzero;"/><path d="M388.8,347.861l40.044,5.358l-8.754,64.145l-39.713,-6.02l8.423,-63.483Z" style="fill:#2fac66;fill-rule:nonzero;"/><path d="M366.551,344.884l22.249,2.977l-8.423,63.483l-21.83,-2.646l8.004,-63.814Z" style="fill:#2fac66;fill-rule:nonzero;"/><path d="M337.665,339.525l29.856,5.491l-8.974,63.682l-29.107,-5.027l8.225,-64.146Z" style="fill:#2fac66;fill-rule:nonzero;"/><path d="M536.583,290.97l-63.638,-8.423l-9.239,75.479l60.728,9.063l12.149,-76.119Z" style="fill:#2fac66;fill-rule:nonzero;"/><path d="M410.211,273.969l62.734,8.578l-9.239,75.479l-64.41,-8.622l10.915,-75.435Z" style="fill:#2fac66;fill-rule:nonzero;"/><path d="M371.182,269.007l39.029,4.962l-6.394,44.255l-38.787,-6.218l6.152,-42.999Z" style="fill:#2fac66;fill-rule:nonzero;"/><path d="M360.465,343.45l4.565,-31.444l38.787,6.218l-4.521,31.18l-38.831,-5.954Z" style="fill:#2fac66;fill-rule:nonzero;"/><path d="M343.729,291.19l23.792,3.308l-7.056,48.952l-22.8,-3.925l6.064,-48.335Z" style="fill:#2fac66;fill-rule:nonzero;"/><path d="M307.367,426.405l-70.562,-8.159l11.599,-86.791l10.716,0.992l-0.242,4.565l33.362,3.814l0.618,-6.946l26.13,2.911l-11.621,89.614Z" style="fill:#2fac66;fill-rule:nonzero;"/><path d="M294.776,313.373l-1.918,20.507l26.13,2.911l2.624,-22.227l-26.836,-1.191Z" style="fill:#2fac66;fill-rule:nonzero;"/><path d="M115.747,306.097l5.866,-48.115l-93.34,-12.503l-5.116,49.284l92.59,11.334Z" style="fill:#2fac66;fill-rule:nonzero;"/><path d="M226.067,254.719l-0.331,-14.576l25.16,1.61l4.939,-42.977l-104.785,-9.724l-6.968,70.363l35.48,1.765l-0.992,11.753l34.509,0.595l12.988,-18.809Z" style="fill:#2fac66;fill-rule:nonzero;"/><path d="M142.627,269.669l1.455,-10.254l35.48,1.765l-0.992,11.753l-35.943,-3.264Z" style="fill:#2fac66;fill-rule:nonzero;"/><path d="M130.323,186.141l-5.27,58.611l19.735,2.183l6.262,-57.883l-20.727,-2.911Z" style="fill:#2fac66;fill-rule:nonzero;"/><path d="M28.273,245.479l7.034,-66.835l95.016,7.497l-5.27,58.611l19.735,2.183l-2.161,22.734l-22.161,-3.131l1.147,-8.556l-93.34,-12.503Z" style="fill:#2fac66;fill-rule:nonzero;"/></g><g id="salar"><path d="M812.348,469.514l-10.011,-58.919l-62.469,13.076l-7.497,59.779l79.977,-13.936Z" style="fill:#e30613;fill-rule:nonzero;"/><path d="M741.257,389.183l-75.832,-11.047l-14.619,96.648l81.565,8.666l8.886,-94.267Z" style="fill:#e30613;fill-rule:nonzero;"/><path d="M810.739,253.352l9.57,69.525l65.534,-10.783l-6.946,-45.468l24.741,-3.087l-4.432,-29.68l-88.467,19.493Z" style="fill:#009fe3;fill-rule:nonzero;"/><path d="M936.824,144.554l1.169,84.343l61.323,-12.943l-11.445,-71.996l-51.047,0.596Z" style="fill:#009fe3;fill-rule:nonzero;"/><path d="M921.83,364.575l-6.836,-30.474l39.36,-6.946l0.618,2.558l11.356,-1.83l2.911,28.401l-47.409,8.291Z" style="fill:#009fe3;fill-rule:nonzero;"/></g><g id="väggar"><path d="M23.157,294.763l-0,5.953l226.129,23.749l-0,-6.748l-226.129,-22.954Z" style="fill-rule:nonzero;"/><path d="M228.073,417.21l12.503,-92.9l8.71,0.155l-12.547,93.891l-8.666,-1.146Z" style="fill-rule:nonzero;"/><path d="M1669.46,118.49l16.45,84.299l-44.41,9.835l13.429,78.324l-222.226,41.367l-0.706,-3.881l219.382,-40.176l-15.127,-77.111l47.034,-10.43" style="fill-rule:nonzero;"/><path d="M1343.09,9.692l-211.708,0" style="fill:none;fill-rule:nonzero;"/><path d="M1130.32,64.686l1.059,-54.994" style="fill:none;fill-rule:nonzero;"/><path d="M812.834,7.862l318.543,1.83" style="fill:none;fill-rule:nonzero;"/><path d="M813.473,253.44l-0.639,-245.578" style="fill:none;fill-rule:nonzero;"/><path d="M321.259,236.306l305.092,39.978" style="fill:none;fill-rule:nonzero;"/><path d="M733.848,263.451l-105.688,0.088" style="fill:none;fill-rule:nonzero;"/><path d="M322.957,205.766l-1.698,30.54" style="fill:none;fill-rule:nonzero;"/><path d="M322.891,206.935l-67.056,-8.159" style="fill:none;fill-rule:nonzero;"/><path d="M308.095,420.738l334.839,45.931l14.862,-93.781l6.813,1.191l-13.803,100.705l-343.439,-48.379l0.728,-5.667Z" style="fill-rule:nonzero;"/><path d="M665.712,316.152l5.976,0.749l-2.889,24.697l17.442,-0.838l-0,4.366l-16.604,1.345l-0.838,7.167l-7.894,0.198l4.807,-37.684Z" style="fill-rule:nonzero;"/><path d="M812.348,469.514l86.02,-13.539l-1.081,-6.417l-84.894,14.752" style="fill-rule:nonzero;"/><path d="M871.466,8.766l0,104.035l8.269,0.132l1.456,-104.167l-9.725,0Z" style="fill-rule:nonzero;"/><path d="M908.82,204.135l-32.282,0.176l0.507,-12.856l27.674,-1.08l0.529,-29.041l3.572,0l-0,42.801" style="fill-rule:nonzero;"/><path d="M909.658,113.242l-38.192,-0.441" style="fill:none;fill-rule:nonzero;"/><path d="M910.143,144.201l-0.485,-30.959" style="fill:none;fill-rule:nonzero;"/><path d="M265.559,279.812l-35.656,-2.932l-2.094,37.684l21.477,3.153l-0.088,13.958l10.959,0.772l2.8,-22.028l-1.742,-0.64l4.344,-29.967Z" style="fill-rule:nonzero;"/><path d="M294.82,314.145l-2.535,26.086l-33.407,-3.219l4.079,-26.593l31.863,3.726Z" style="fill-rule:nonzero;"/><path d="M300.201,272.977l2.139,-11.908" style="fill:none;fill-rule:nonzero;"/><path d="M311.425,206.273l0.286,3.352l6.351,0.265l-2.448,25.292l-9.79,-1.169l-0.904,6.13l-1.831,12.282" style="fill-rule:nonzero;"/><path d="M334.247,244.289l-28.512,-3.793l0.86,-5.645l10.386,1.477l17.266,2.448l-0,5.513Z" style="fill-rule:nonzero;"/><path d="M319.23,211.477c0,1.39 -0.11,2.779 -0.242,4.146c-0,-0.838 -0,-1.676 -0.154,-2.514" style="fill:none;fill-rule:nonzero;"/><path d="M316.717,234.917c0.292,0.091 0.562,0.241 0.793,0.441c0.093,0.1 0.197,0.189 0.309,0.265c0.131,0.032 0.267,0.032 0.397,-0c0.43,0.001 0.859,-0.044 1.279,-0.132c0.506,-0.045 0.981,-0.263 1.345,-0.618c0.314,-0.51 0.371,-1.139 0.154,-1.698c-0.349,-1.155 -1.042,-2.178 -1.984,-2.932c-0.331,-0.243 -0.684,-0.486 -0.992,-0.75c-0.429,-0.349 -0.788,-0.776 -1.059,-1.257" style="fill:none;fill-rule:nonzero;"/><path d="M317.069,229.647c-0.315,1.999 -0.367,4.03 -0.154,6.042c0.008,0.293 0.146,0.568 0.375,0.75c0.287,0.108 0.61,0.066 0.86,-0.111c0.778,-0.466 1.376,-1.181 1.698,-2.028c0.308,-0.855 0.308,-1.791 -0,-2.646" style="fill:none;fill-rule:nonzero;"/><path d="M318.613,234.322c0.023,0.079 0.023,0.163 0,0.242c-0.057,0.023 -0.12,0.023 -0.176,0c-0.249,0.034 -0.501,0.034 -0.75,0l-0.177,0c-0.119,-0.078 -0.193,-0.21 -0.198,-0.352c-0.05,-0.781 0.16,-1.556 0.595,-2.205c0.177,-0.287 0.331,-0.574 0.486,-0.86c0.154,-0.287 0.374,-0.618 0.529,-0.287c0.154,0.331 -0.177,0.882 -0.199,1.102c-0.107,0.782 -0.144,1.572 -0.11,2.36Z" style="fill:none;fill-rule:nonzero;"/><path d="M312.329,207.486c-0.031,0.366 0.098,0.728 0.352,0.993c0.196,0.17 0.42,0.304 0.662,0.396c0.652,0.3 1.322,0.557 2.007,0.772c0.485,0.133 1.08,0.177 1.367,-0.242c0.11,-0.155 0.172,-0.339 0.176,-0.53c-0.015,-0.966 -0.606,-1.836 -1.499,-2.205c-0.857,-0.336 -1.771,-0.501 -2.691,-0.485c0.027,0.119 0.109,0.218 0.221,0.265c-0.419,0.11 -0.551,0.661 -0.595,1.036Z" style="fill:none;fill-rule:nonzero;"/><path d="M314.445,207.53c-0.028,0.063 -0.028,0.136 0,0.199c-0.021,0.269 0.041,0.538 0.177,0.772c0.15,0.217 0.38,0.368 0.639,0.419c0.264,0.032 0.531,0.032 0.794,-0c0.125,-0.364 0.01,-0.77 -0.287,-1.015c-0.193,-0.145 -0.421,-0.236 -0.661,-0.264c-0.506,-0.132 -1.038,-0.132 -1.544,-0" style="fill:none;fill-rule:nonzero;"/><path d="M317.731,208.302c-0.054,1.255 0.32,2.491 1.058,3.506c0.281,0.349 0.668,0.597 1.103,0.706c0.439,0.099 0.899,-0.054 1.191,-0.397c0.104,-0.165 0.185,-0.343 0.242,-0.529l0.529,-1.522c0.128,-0.301 0.203,-0.622 0.221,-0.948c-0.015,-0.636 -0.336,-1.227 -0.86,-1.588c-0.507,-0.37 -1.085,-0.633 -1.698,-0.771c-0.441,-0.143 -0.903,-0.21 -1.367,-0.199c-0.464,0.017 -0.899,0.235 -1.191,0.596c0.271,-0.033 0.545,-0.033 0.816,-0c0.03,0.382 0.016,0.767 -0.044,1.146Z" style="fill:none;fill-rule:nonzero;"/><path d="M319.671,207.597c-0.328,0.732 -0.45,1.54 -0.352,2.337c0.031,0.273 0.121,0.537 0.264,0.772c0.148,0.229 0.412,0.357 0.684,0.33c0.23,-0.037 0.436,-0.164 0.573,-0.352c0.188,-0.225 0.323,-0.489 0.397,-0.772c0.068,-0.293 0.021,-0.601 -0.132,-0.86c-0.206,-0.252 -0.483,-0.436 -0.794,-0.529c-0.476,-0.193 -0.986,-0.29 -1.5,-0.287" style="fill:none;fill-rule:nonzero;"/><path d="M317.731,229.603c0.514,0.602 1.211,1.02 1.985,1.191c0.237,0.067 0.489,0.067 0.727,-0c0.618,-0.221 0.772,-1.015 0.816,-1.654c0.042,-1.068 -0.062,-2.136 -0.309,-3.175c-0.098,-0.586 -0.324,-1.143 -0.661,-1.632c-0.283,-0.317 -0.609,-0.592 -0.97,-0.816c-0.271,-0.235 -0.612,-0.375 -0.971,-0.397c-0.595,0 -0.926,0.662 -1.367,1.059c-0.424,0.295 -0.673,0.784 -0.661,1.301c-0.033,0.499 -0.033,1 -0,1.499c0.197,0.996 0.689,1.91 1.411,2.624Z" style="fill:none;fill-rule:nonzero;"/><path d="M318.37,212.734c-0.516,0.79 -0.931,1.642 -1.234,2.536c-0.178,0.767 -0.267,1.551 -0.265,2.337l0,1.742c-0.02,0.139 -0.02,0.281 0,0.419c0.12,0.19 0.298,0.337 0.507,0.419c0.378,0.234 0.813,0.356 1.257,0.353c0.31,-0.062 0.604,-0.189 0.86,-0.375c0.306,-0.167 0.587,-0.375 0.838,-0.617c0.828,-0.914 1.201,-2.155 1.014,-3.374c-0.188,-1.199 -0.453,-2.385 -0.794,-3.55c-0.032,-0.208 -0.099,-0.409 -0.198,-0.595c-0.107,-0.2 -0.326,-0.314 -0.551,-0.287" style="fill:none;fill-rule:nonzero;"/><path d="M319.671,214.741c-0.363,0.348 -0.623,0.791 -0.749,1.279c-0.023,0.411 -0.023,0.823 -0,1.235c-0.07,0.304 -0.107,0.614 -0.111,0.926c-0.001,0.327 0.248,0.605 0.574,0.639c0.18,-0.03 0.34,-0.134 0.441,-0.286c0.094,-0.155 0.175,-0.317 0.242,-0.485c0.153,-0.31 0.354,-0.593 0.596,-0.838c0.002,-0.321 -0.042,-0.641 -0.133,-0.949c-0.096,-0.194 -0.318,-0.296 -0.529,-0.242c-0.22,-0 -0.264,0.375 -0.286,0.617l-0,0.618c-0.046,0.105 -0.046,0.225 -0,0.33c0.113,0.188 0.356,0.256 0.551,0.155c0.194,-0.099 0.354,-0.253 0.463,-0.441c0.248,-0.375 0.441,-0.783 0.573,-1.213" style="fill:none;fill-rule:nonzero;"/><path d="M320.024,219.107c-0.564,-0.029 -1.124,0.109 -1.609,0.397c-0.554,0.489 -0.887,1.181 -0.927,1.918c0,0.287 0,0.596 -0.132,0.904c-0.022,0.124 -0.022,0.251 0,0.375c0.047,0.076 0.106,0.144 0.177,0.199c0.466,0.413 1.026,0.708 1.631,0.86c0.348,0.086 0.711,0.086 1.059,-0c0.321,-0.152 0.613,-0.362 0.86,-0.618c0.427,-0.34 0.743,-0.801 0.904,-1.323c0.087,-0.377 0.087,-0.769 -0,-1.146l-0.265,-1.235" style="fill:none;fill-rule:nonzero;"/><path d="M319.958,221.136c-0.287,-0 -0.441,0.374 -0.551,0.639c-0.17,0.361 -0.274,0.749 -0.309,1.147c-0.028,0.406 0.116,0.807 0.397,1.102c0.085,0.081 0.193,0.135 0.309,0.155c0.236,0.014 0.465,-0.085 0.617,-0.265c0.647,-0.653 0.984,-1.552 0.926,-2.47c0,-0.286 -0.132,-0.639 -0.419,-0.705" style="fill:none;fill-rule:nonzero;"/><path d="M320.289,220.298c-0.241,0.245 -0.396,0.563 -0.441,0.904c-0.07,0.263 -0.004,0.545 0.176,0.749c0.126,0.103 0.28,0.164 0.441,0.177c0.441,-1.037 0.882,-2.095 1.301,-3.131" style="fill:none;fill-rule:nonzero;"/><path d="M318.084,224.157c-0.283,0.382 -0.534,0.788 -0.75,1.212c-0.171,0.281 -0.269,0.599 -0.287,0.926c-0.002,0.294 0.05,0.586 0.155,0.86l0.595,1.853c0.081,0.611 0.608,1.072 1.224,1.072c0.063,0 0.125,-0.004 0.187,-0.014c0.139,0.022 0.281,0.022 0.419,0c0.135,-0.073 0.249,-0.179 0.331,-0.309c1.064,-1.461 1.383,-3.341 0.86,-5.071c-0.2,-0.868 -0.821,-1.581 -1.654,-1.897" style="fill:none;fill-rule:nonzero;"/><path d="M319.517,224.333c-0.392,0.098 -0.708,0.389 -0.838,0.772c-0.021,0.161 -0.021,0.324 0,0.485l0,1.345c-0.023,0.102 -0.023,0.207 0,0.309c0.048,0.062 0.108,0.115 0.177,0.154l0.529,0.331l0.132,-0c0.132,-0 0.221,-0.155 0.243,-0.287c0.246,-1.085 0.437,-2.181 0.573,-3.285" style="fill:none;fill-rule:nonzero;"/><path d="M319.473,228.434c-0.254,0.088 -0.477,0.25 -0.639,0.463" style="fill:none;fill-rule:nonzero;"/><path d="M775.568,416.328c0.044,-4.116 -0.643,-8.208 -2.029,-12.084c-0.683,-1.896 -1.521,-3.727 -2.359,-5.557c-0.379,-0.931 -0.883,-1.807 -1.499,-2.602c-0.786,-0.833 -1.702,-1.534 -2.713,-2.073c-1.796,-1.179 -3.71,-2.169 -5.711,-2.954c-2.798,-0.835 -5.701,-1.266 -8.622,-1.279l-11.378,-0.596" style="fill:none;fill-rule:nonzero;"/><path d="M886.703,166.913l5.535,-0.441l-0,-1.654l-5.028,-0.308l-0.507,2.403Z" style="fill-rule:nonzero;"/><path d="M844.013,170.948l-8.71,-0.22l-0.242,19.978l-14.818,-0l-0.662,-45.91l-5.623,0.287l0,50.672l25.755,-0.419l-0.066,2.602l36.075,-0.97l-0,-4.961l-32.084,-0l0.375,-21.059Z" style="fill-rule:nonzero;"/><path d="M899.206,233.859l17.001,-2.426" style="fill:none;fill-rule:nonzero;"/><path d="M593.672,344.002l21.897,3.153" style="fill:none;fill-rule:nonzero;"/><path d="M610.232,377.96l4.212,-31.665" style="fill:none;fill-rule:nonzero;"/><path d="M1186.83,10.817l0,35.81" style="fill:none;fill-rule:nonzero;"/><path d="M1292.24,9.692l0,35.656" style="fill:none;fill-rule:nonzero;"/><path d="M910.143,144.201l27.122,1.147" style="fill:none;fill-rule:nonzero;"/><path d="M680.728,264.267l-6.835,37.794l-9.195,0.265l6.99,-38.059l9.04,-0Z" style="fill-rule:nonzero;"/><path d="M634.951,293.197l30.254,3.594l-0.507,5.535l-30.496,-4.057l0.749,-5.072Z" style="fill-rule:nonzero;"/><path d="M627.145,276.505l-1.896,20.463l8.07,1.102l4.19,-33.737l-9.349,-0.794l-1.037,12.569l-292.876,-31.819l-0,-5.513" style="fill-rule:nonzero;"/><path d="M247.5,268.434l4.454,-33.737l7.365,0.992l-4.565,33.848l-7.254,-1.103Z" style="fill-rule:nonzero;"/><path d="M1133.58,189.008l0.882,-40.441l-5.755,-0.132l-0.86,42.646l5.733,-2.073Z" style="fill-rule:nonzero;"/><path d="M226.067,254.719l21.896,3.462" style="fill:none;fill-rule:nonzero;"/><path d="M23.157,300.716l-8.865,91.995" style="fill:none;fill-rule:nonzero;"/><path d="M228.073,417.21l-213.781,-24.499" style="fill:none;fill-rule:nonzero;"/><path d="M879.735,112.933l0,32.569" style="fill:none;fill-rule:nonzero;"/><path d="M910.143,144.201l-30.408,1.301" style="fill:none;fill-rule:nonzero;"/></g><g id="trappor"><path d="M252.483,234.675l42.315,5.512l0.772,-7.828l-36.692,-4.432l2.139,-25.402l42.094,5.623l0.067,-4.344l-47.343,-5.028l-3.352,35.899Z" style="fill:#7d4e24;fill-rule:nonzero;"/><path d="M682.029,264.619l-7.276,38.832l3.814,0.33l6.483,-36.383l43.55,1.036l10.871,61.279l-36.405,8.357l0.066,5.138l41.279,-6.549l-10.563,-73.208l-51.819,1.168Z" style="fill:#7d4e24;fill-rule:nonzero;"/><path d="M805.094,372.028l20.794,61.411l45.733,-6.946l-0,-66.064l-5.734,0l1.897,63.131l-38.942,5.932l-20.441,-58.148l-3.307,0.684Z" style="fill:#7d4e24;fill-rule:nonzero;"/><path d="M1292.24,80.232l49.636,0.154l0.287,47.52l-5.138,0.088l0.022,-42.58l-44.807,0.154l0,-5.336Z" style="fill:#7d4e24;fill-rule:nonzero;"/><path d="M1063.92,88.854l-0.463,54.09l18.522,0l0.309,-54.244l-3.175,-0.199l-0.044,51.091l-12.062,0l0.088,-50.738l-3.175,-0" style="fill:#7d4e24;fill-rule:nonzero;"/><path d="M1108,193.33l19.846,-2.249l10.231,52.943l-6.394,0.397l-8.336,-48.269l-14.2,1.919l-1.147,-4.741Z" style="fill:#7d4e24;fill-rule:nonzero;"/><path d="M869.901,107.068l-56.693,-0l0,39.095l48.6,-0.11l0,-4.322l-42.602,0.331l-0.242,-29.879l50.826,0.089l0.111,-5.204Z" style="fill:#7d4e24;fill-rule:nonzero;"/><path d="M1293.56,98.314l32.326,0.154l0.177,25.645l3.44,-0l-0.618,-28.908l-35.325,-0.199l0,3.308Z" style="fill:#7d4e24;fill-rule:nonzero;"/></g><g id="hissar"><path d="M851.478,172.734c3.704,-1.033 7.617,1.374 8.731,5.371c1.115,3.998 -0.988,8.082 -4.692,9.115c-3.704,1.033 -7.617,-1.374 -8.731,-5.372c-1.115,-3.997 0.988,-8.081 4.692,-9.114Z" style="fill:#cbbba0;"/></g><g id="toaletter"><path d="M261.921,310l15.965,2.557l3.792,-30.65l-16.119,-2.095l-3.638,30.188Z" style="fill:#a48a7b;fill-rule:nonzero;"/><path d="M299.649,281.907l-17.971,0l-1.896,15.899l18.897,0.308l0.97,-16.207Z" style="fill:#a48a7b;fill-rule:nonzero;"/><path d="M277.886,312.557l19.073,0.662l1.72,-15.105l-18.897,-0.308l-1.896,14.751Z" style="fill:#a48a7b;fill-rule:nonzero;"/><path d="M217.643,290.661l-2.117,22.558l12.547,1.764l1.764,-23.44l-12.194,-0.882Z" style="fill:#a48a7b;fill-rule:nonzero;"/><path d="M652.812,396.063l-22.028,-2.492l3.528,-23.858l23.484,3.175l-4.984,23.175Z" style="fill:#a48a7b;fill-rule:nonzero;"/><path d="M641.831,407.684l-3.263,17.773l9.569,1.455l2.933,-19.228l-9.239,-0Z" style="fill:#a48a7b;fill-rule:nonzero;"/><path d="M628.821,405.964l-3.374,18.302l12.613,1.213l2.426,-17.883l-11.665,-1.632Z" style="fill:#a48a7b;fill-rule:nonzero;"/><path d="M864.52,164.51l0,27.276l22.69,-0.353l0,-26.923l-22.69,-0Z" style="fill:#a48a7b;fill-rule:nonzero;"/><path d="M903.638,263.539l5.711,-0.088l1.963,14.906l-28.865,3.793l-3.55,-15.524l24.741,-3.087Z" style="fill:#a48a7b;fill-rule:nonzero;"/><path d="M884.498,295.623l25.535,-3.925l1.94,16.912l-25.27,3.33l-2.205,-16.317Z" style="fill:#a48a7b;fill-rule:nonzero;"/></g><g id="dörrar"><ellipse cx="898.456" cy="166.516" rx="5.777" ry="3.771" style="fill:#ffed00;"/><ellipse cx="926.438" cy="232.734" rx="10.849" ry="5.777" style="fill:#ffed00;"/><ellipse cx="949.68" cy="146.053" rx="9.636" ry="8.291" style="fill:#ffed00;"/><ellipse cx="1100.29" cy="199.372" rx="8.6" ry="6.042" style="fill:#ffed00;"/><circle cx="902.888" cy="251.279" r="5.865" style="fill:#ffed00;"/><ellipse cx="853.715" cy="318.136" rx="7.387" ry="5.402" style="fill:#ffed00;"/><ellipse cx="1005.47" cy="146.56" rx="8.423" ry="7.784" style="fill:#ffed00;"/><path d="M688.247,343.454c0.455,-3.475 3.999,-5.881 7.909,-5.369c3.909,0.512 6.714,3.749 6.259,7.224c-0.455,3.476 -3.999,5.882 -7.909,5.37c-3.909,-0.512 -6.714,-3.749 -6.259,-7.225Z" style="fill:#ffed00;"/><ellipse cx="670.695" cy="309.184" rx="5.733" ry="6.747" style="fill:#ffed00;"/><ellipse cx="665.888" cy="364.354" rx="7.034" ry="9.217" style="fill:#ffed00;"/><ellipse cx="609.086" cy="405.92" rx="7.233" ry="5.601" style="fill:#ffed00;"/><ellipse cx="586.837" cy="318.379" rx="5.292" ry="6.417" style="fill:#ffed00;"/><ellipse cx="573.452" cy="312.646" rx="4.917" ry="3.352" style="fill:#ffed00;"/><circle cx="488.226" cy="283.362" r="8.026" style="fill:#ffed00;"/><ellipse cx="449.483" cy="278.048" rx="8.622" ry="7.519" style="fill:#ffed00;"/><ellipse cx="388.69" cy="270" rx="5.865" ry="4.785" style="fill:#ffed00;"/><ellipse cx="342.935" cy="302.414" rx="6.571" ry="5.358" style="fill:#ffed00;"/><ellipse cx="377.643" cy="314.476" rx="5.182" ry="6.174" style="fill:#ffed00;"/><ellipse cx="321.061" cy="328.368" rx="5.601" ry="3.308" style="fill:#ffed00;"/><ellipse cx="321.854" cy="349.977" rx="7.585" ry="6.064" style="fill:#ffed00;"/><ellipse cx="308.073" cy="408.037" rx="7.74" ry="6.571" style="fill:#ffed00;"/><ellipse cx="342.273" cy="407.243" rx="4.609" ry="6.99" style="fill:#ffed00;"/><circle cx="371.358" cy="410.55" r="5.91" style="fill:#ffed00;"/><circle cx="406.441" cy="416.614" r="6.747" style="fill:#ffed00;"/><ellipse cx="451.887" cy="422.436" rx="8.026" ry="6.902" style="fill:#ffed00;"/><ellipse cx="501.369" cy="427.772" rx="3.506" ry="4.41" style="fill:#ffed00;"/><ellipse cx="542.272" cy="434.762" rx="8.489" ry="6.836" style="fill:#ffed00;"/><ellipse cx="303.178" cy="256.791" rx="4.013" ry="4.52" style="fill:#ffed00;"/><circle cx="298.878" cy="276.946" r="3.749" style="fill:#ffed00;"/><ellipse cx="300.862" cy="235.535" rx="3.815" ry="3.286" style="fill:#ffed00;"/><ellipse cx="248.426" cy="273.506" rx="4.719" ry="3.969" style="fill:#ffed00;"/><circle cx="194.181" cy="274.564" r="4.256" style="fill:#ffed00;"/><ellipse cx="171.447" cy="272.293" rx="3.55" ry="3.241" style="fill:#ffed00;"/><ellipse cx="152.373" cy="270.11" rx="4.079" ry="3.705" style="fill:#ffed00;"/><circle cx="132.792" cy="267.442" r="4.322" style="fill:#ffed00;"/><ellipse cx="119.275" cy="286.141" rx="6.329" ry="4.609" style="fill:#ffed00;"/><ellipse cx="148.36" cy="231.169" rx="4.697" ry="5.91" style="fill:#ffed00;"/><circle cx="127.941" cy="229.493" r="4.675" style="fill:#ffed00;"/><ellipse cx="909.283" cy="152.602" rx="6.99" ry="8.622" style="fill:#ffed00;"/><ellipse cx="934.751" cy="331.323" rx="6.527" ry="5.469" style="fill:#ffed00;"/><ellipse cx="1134.77" cy="56.175" rx="9.217" ry="6.725" style="fill:#ffed00;"/><ellipse cx="1135.74" cy="140.607" rx="8.975" ry="7.982" style="fill:#ffed00;"/></g><g id="text"><text x="947.805px" y="190.794px" style="font-family:'ArialMT', 'Arial', sans-serif;font-size:13.23px;">K5421</text><text x="1005.47px" y="185.965px" style="font-family:'ArialMT', 'Arial', sans-serif;font-size:13.23px;">K5420</text><text x="830.783px" y="285.832px" style="font-family:'ArialMT', 'Arial', sans-serif;font-size:13.23px;">K4402</text><g transform="matrix(12,0,0,12,517.295,329.566)"></g><text x="482.596px" y="329.566px" style="font-family:'ArialMT', 'Arial', sans-serif;font-size:12px;">K2415</text><g transform="matrix(12,0,0,12,453.271,324.936)"></g><text x="418.572px" y="324.936px" style="font-family:'ArialMT', 'Arial', sans-serif;font-size:12px;">K2414</text><g transform="matrix(12,0,0,12,297.744,385.422)"></g><text x="263.935px" y="385.422px" style="font-family:'ArialMT', 'Arial', sans-serif;font-size:12px;">K241<tspan x="291.07px " y="385.422px ">1</tspan></text><g transform="matrix(12,0,0,12,422.545,385.422)"></g><text x="387.845px" y="385.422px" style="font-family:'ArialMT', 'Arial', sans-serif;font-size:12px;">K2426</text><g transform="matrix(12,0,0,12,476.91,394.047)"></g><text x="442.21px" y="394.047px" style="font-family:'ArialMT', 'Arial', sans-serif;font-size:12px;">K2427</text><g transform="matrix(12,0,0,12,566.134,408.005)"></g><text x="531.434px" y="408.005px" style="font-family:'ArialMT', 'Arial', sans-serif;font-size:12px;">K2429</text><g transform="matrix(12,0,0,12,706.875,439.206)"></g><text x="685.523px" y="439.206px" style="font-family:'ArialMT', 'Arial', sans-serif;font-size:12px;">K42</text></g></g></svg>