<?xml version="1.0" encoding="UTF-8" standalone="no"?><!DOCTYPE svg PUBLIC "-//W3C//DTD SVG 1.1//EN" "http://www.w3.org/Graphics/SVG/1.1/DTD/svg11.dtd"><svg width="100%" height="100%" viewBox="0 0 550 500" version="1.1" xmlns="http://www.w3.org/2000/svg" xmlns:xlink="http://www.w3.org/1999/xlink" xml:space="preserve" xmlns:serif="http://www.serif.com/" style="fill-rule:evenodd;clip-rule:evenodd;stroke-linecap:round;stroke-linejoin:round;stroke-miterlimit:1.5;"><g id="tappan_03" opacity="0.5"><g id="salar"><path d="M318.786,444.485l0,38.306l-54.782,-0.57l-0,-37.736l54.782,-0Z" style="fill:#5dc4e5;fill-rule:nonzero;"/><path d="M218.549,451.67l45.455,-0l-0,30.551l-45.455,-0.866l-0,-29.685Z" style="fill:#5dc4e5;fill-rule:nonzero;"/><path d="M448.168,444.391l-0,40.239l-55.353,-0.671l0,-39.568l55.353,-0Z" style="fill:#5dc4e5;fill-rule:nonzero;"/><path d="M519.622,285.461l-0,110.294l-24.665,-0l-25.068,-17.444l-26.872,0.397c-5.797,-24.749 -5.797,-50.506 0,-75.255l27.276,-0l23.265,-17.992l26.064,0Z" style="fill:#5dc4e5;fill-rule:nonzero;"/><path d="M190.638,294.688l-1.003,92.215l34.692,0l20.257,-14.839l18.648,0c4.623,-20.866 4.623,-42.494 -0,-63.36l-18.251,0l-20.856,-14.045l-33.487,0.029Z" style="fill:#5dc4e5;fill-rule:nonzero;"/></g><g id="toaletter"><path d="M519.629,444.391l-0,-48.636l-41.862,-0l0.043,48.636l41.819,-0Z" style="fill:#ae5099;fill-rule:nonzero;"/><path d="M194.296,423.983l-0.397,-37.051l39.316,0l-0.411,37.051l-38.508,-0Z" style="fill:#ae5099;fill-rule:nonzero;"/></g><g id="trappor"><path d="M216.962,449.152l1.587,0l-0,42.31l-10.215,-0l-0,-2.908l8.628,-0.201l-0,-39.201Z" style="fill:#5b3e3e;fill-rule:nonzero;"/><path d="M317.887,281.935l2.967,-0l4.891,-29.005l16.726,2.637l-8.086,42.68l-33.301,0.043l0.087,-45.36l16.922,-0l-0.206,29.005Z" style="fill:#ca9e67;fill-rule:nonzero;"/><path d="M195.003,490.762l-0,-52.445l21.757,-0l-0,1.01l1.789,-0l-0,-2.41l-25.155,0l-0,53.845l1.609,-0Z" style="fill:#5b3e3e;fill-rule:nonzero;"/><path d="M169.53,208.099l0,-21.959l-45.325,-0l0,64.377l-1.5,-0l-0,-65.582l48.629,0l0.115,23.164l-1.919,0Z" style="fill:#5b3e3e;fill-rule:nonzero;"/><path d="M492,473.463l-2.323,-0l-0,-29.072l33.155,-0l-0,36.697l-3.203,0l-0,-34.345l-27.68,-0.015l0.051,26.735Z" style="fill:#5b3e3e;fill-rule:nonzero;"/></g><g id="restricted"><path d="M142.074,220.182l0,29.815l48.932,0.52l0,-20.242l-21.526,-0.202l-0.051,-9.891l-27.355,0Z" style="fill:#e52722;fill-rule:nonzero;"/><path d="M205.679,275.535l-0.151,18.799l36.416,0.722l-0.166,-19.521l-36.099,-0Z" style="fill:#e52722;fill-rule:nonzero;"/><path d="M242.55,294.233l6.117,0l-0,14.493l-3.052,-0l-21.014,-14.046l17.977,0.477l-0.028,-0.924Z" style="fill:#e52722;fill-rule:nonzero;"/><path d="M493.558,285.461l-35.565,0l0,17.992l12.3,-0l23.265,-17.992Z" style="fill:#e52722;fill-rule:nonzero;"/><path d="M474.773,396.058l-18.251,-0l-0,-17.451l13.201,0l24.369,16.982l-19.319,0.469Z" style="fill:#e52722;fill-rule:nonzero;"/><path d="M249.497,372.814l-0.397,15.07l-15.885,0l-0,-0.952l-8.484,0l19.853,-14.839l4.913,0.721Z" style="fill:#e52722;fill-rule:nonzero;"/><path d="M210.823,423.983l-0,12.934l22.392,0.217l-0,-12.899l-22.392,-0.252Z" style="fill:#e52722;fill-rule:nonzero;"/><path d="M368.786,209.455l-197.337,-0.101l-0.115,-24.419l197.452,-1.053l-0,25.573Z" style="fill:#e52722;fill-rule:nonzero;"/><path d="M392.181,188.997l-0,20.285l130.651,0l-0,-25.4l-154.046,-0l-0,5.317l23.395,-0.202Z" style="fill:#e52722;fill-rule:nonzero;"/><path d="M522.832,184.494l-0,-180.286l-475.907,0l-19.69,243.721l96.263,0l-0,-63.435l399.334,-0Z" style="fill:none;stroke:#000;stroke-width:1px;"/></g><g id="hissar"><circle cx="373.792" cy="200.272" r="3.903" style="fill:#755ba3;"/><circle cx="386.056" cy="200.272" r="3.448" style="fill:#755ba3;"/></g><g id="väggar"><path d="M263.232,308.726l-2.806,-15.748l-4.913,-0l-0,1.702l3.859,0l2.359,14.046l1.501,-0Z" style="fill-rule:nonzero;"/><path d="M297.628,302.003l-0.534,142.785l1.27,-0l0.699,-142.785l-1.435,-0Z" style="fill-rule:nonzero;"/><path d="M412.538,258.221l-0.404,186.264l1.739,-0l-0,-186.264l-1.335,0Z" style="fill-rule:nonzero;"/><path d="M338.509,286.543l20.783,0l0,1.255l-20.783,-0.267l0,-0.988Z" style="fill-rule:nonzero;"/><rect x="366.744" y="286.543" width="4.076" height="1.248"/><rect x="377.58" y="286.543" width="4.545" height="1.248"/><rect x="389.237" y="286.543" width="22.897" height="0.952"/><path d="M343.754,258.142l15.538,-0l0,1.212l-15.762,-0l0.224,-1.212Z" style="fill-rule:nonzero;"/><path d="M412.538,258.221l-23.293,0l-0,1.133l22.889,-0l0.404,-1.133Z" style="fill-rule:nonzero;"/><path d="M377.176,258.221l4.977,-0.079l-0.029,1.212l-4.948,-0l-0,-1.133Z" style="fill-rule:nonzero;"/><path d="M366.744,258.221l4.083,0l0,1.133l-4.083,-0.079l0,-1.054Z" style="fill-rule:nonzero;"/><path d="M514.608,209.297l0,9.507l1.356,-2.106l0,-7.416l-1.356,0.015Z" style="fill-rule:nonzero;"/><path d="M514.846,222.209l-0.26,9.4l1.378,-0.274l0,-7.82l-1.118,-1.306Z" style="fill-rule:nonzero;"/><path d="M514.608,237.532l1.161,-0l0,7.315l-1.262,-0l0.101,-7.315Z" style="fill-rule:nonzero;"/><path d="M522.536,244.847l0.296,199.544l-3.203,-0l-0,-196.832l-5.021,0l-0.101,-2.712l8.029,-0Z" style="fill-rule:nonzero;"/><path d="M522.385,490.56l-0,4.711l-4.913,-0l-0,-1.299l3.708,-0.202l-0.101,-3.21l1.306,-0Z" style="fill-rule:nonzero;"/><path d="M508.498,495.271l-42.916,-0.498l-0.404,-10.143l3.21,0l0,7.337l40.11,0.303l-0,3.001Z" style="fill-rule:nonzero;"/><path d="M389.879,441.231l0,45.318l75.299,1.104l0,-3.023l-72.363,0l0,-40.694l19.319,0.549l0,-3.254l-22.255,0Z" style="fill-rule:nonzero;"/><path d="M255.765,372.093l0,1.299l6.017,-0l-2.511,13.54l-3.506,0l0,0.952l4.314,0l3.153,-15.791l-7.467,0Z" style="fill-rule:nonzero;"/><path d="M477.5,438.245l-12.935,-0l0,4.79l12.985,-0l-0.05,-4.79Z" style="fill:#e52722;fill-rule:nonzero;"/><path d="M450.036,395.755l0,1.053l-3.708,-0l-3.311,-18.1l1.104,0l3.513,17.047l2.402,-0Z" style="fill-rule:nonzero;"/><path d="M455.887,443.035l21.663,0.288l0,1.068l-21.663,-0.238l-0,-1.118Z" style="fill-rule:nonzero;"/><path d="M460.735,444.384l0.151,29.836l18.561,0l0.455,-29.829l-19.167,-0.007Z" style="fill-rule:nonzero;"/><path d="M479.902,454.014l9.58,0l0.195,-9.356l-9.775,-0.267l-0,9.623Z" style="fill-rule:nonzero;"/><path d="M444.272,303.453l2.958,-18.497l3.463,0l-0,-0.801l-4.415,0l-3.261,19.298l1.255,-0Z" style="fill-rule:nonzero;"/><path d="M514.038,244.847l-28.906,-0l-0,1.269l21.923,0l-0.13,14.71l3.86,0.108l-0,-1.147l-2.792,-0.101l-0,-13.635l6.153,0.065l-0.108,-1.269Z" style="fill-rule:nonzero;"/><path d="M517.118,259.686l0,1.14l2.511,-0l-0,-1.14" style="fill-rule:nonzero;"/><path d="M507.38,269.114l0.916,0l-0,-8.18l-0.902,-0.108l-0.014,8.288Z" style="fill-rule:nonzero;"/><rect x="507.041" y="275.83" width="1.255" height="9.623"/><path d="M485.283,216.806l1.234,0l0,-7.243l-1.234,0.008l0,7.235Z" style="fill-rule:nonzero;"/><path d="M485.276,231.905l1.241,-0.115l0,-8.217l-1.205,-0l-0.036,8.332Z" style="fill-rule:nonzero;"/><path d="M485.132,237.582l1.385,0l0,7.265l-1.385,-0.123l-0,-7.142Z" style="fill-rule:nonzero;"/><rect x="188.467" y="250.517" width="2.539" height="25.018"/><path d="M188.128,284.92l-1.335,118.092l2.842,-0l0.022,-2.345l0.916,-115.747l-2.445,0Z" style="fill-rule:nonzero;"/><path d="M191.208,402.247l0,36.026l2.186,0l-0,-1.673l-1.097,0.065l0,-12.682l1.999,-0l-0.397,-37.051l-4.134,-0.267l-0.108,14.002l1.551,1.58Z" style="fill-rule:nonzero;"/><path d="M188.467,275.535l-0.339,9.385l2.445,0l0.433,-9.385l-2.539,-0Z" style="fill-rule:nonzero;"/><path d="M191.338,275.08l3.311,0l0,1.154l-3.643,0l0.332,-1.154Z" style="fill-rule:nonzero;"/><rect x="200.94" y="275.535" width="4.314" height="0.931"/><path d="M218.549,491.462l12.639,-0l-0.109,-6.832l90.795,1.255l-0,-44.423l-23.799,0l0.289,3.326l20.422,-0.39l0,37.823l-100.237,-0.866l-0,10.107Z" style="fill-rule:nonzero;"/><path d="M124.205,250.517l17.53,-0.512l-0.101,-1.623l-17.429,0.086l0,2.049Z" style="fill-rule:nonzero;"/></g><g id="dörrar"><ellipse cx="362.907" cy="259.188" rx="3.16" ry="1.854" style="fill:#68b42e;"/><ellipse cx="373.98" cy="259.188" rx="2.604" ry="1.854" style="fill:#68b42e;"/><ellipse cx="385.717" cy="259.188" rx="3.008" ry="1.854" style="fill:#68b42e;"/><ellipse cx="385.443" cy="287.863" rx="3.282" ry="1.854" style="fill:#68b42e;"/><ellipse cx="374.002" cy="287.416" rx="3.174" ry="1.803" style="fill:#68b42e;"/><ellipse cx="363.246" cy="288.137" rx="3.499" ry="1.803" style="fill:#68b42e;"/><ellipse cx="454.083" cy="284.307" rx="3.398" ry="2.734" style="fill:#68b42e;"/><ellipse cx="453.427" cy="303.705" rx="4.054" ry="2.503" style="fill:#68b42e;"/><ellipse cx="507.257" cy="272.274" rx="2.272" ry="3.16" style="fill:#68b42e;"/><ellipse cx="515.25" cy="285.093" rx="2.777" ry="2.373" style="fill:#68b42e;"/><circle cx="513.959" cy="260.205" r="2.893" style="fill:#68b42e;"/><ellipse cx="516.21" cy="220.283" rx="1.71" ry="3.232" style="fill:#68b42e;"/><ellipse cx="515.488" cy="234.358" rx="1.58" ry="3.174" style="fill:#68b42e;"/><ellipse cx="486.084" cy="220.283" rx="1.803" ry="3.232" style="fill:#68b42e;"/><ellipse cx="485.861" cy="234.964" rx="1.782" ry="3.059" style="fill:#68b42e;"/><ellipse cx="453.506" cy="397.111" rx="3.015" ry="1.854" style="fill:#68b42e;"/><ellipse cx="453.052" cy="379.711" rx="3.47" ry="2.005" style="fill:#68b42e;"/><ellipse cx="452.338" cy="445.091" rx="3.549" ry="2.857" style="fill:#68b42e;"/><ellipse cx="438.508" cy="444.362" rx="3.708" ry="3.131" style="fill:#68b42e;"/><ellipse cx="523.589" cy="486.022" rx="2.157" ry="4.538" style="fill:#68b42e;"/><ellipse cx="512.906" cy="495.574" rx="3.708" ry="3.16" style="fill:#68b42e;"/><ellipse cx="257.793" cy="450.717" rx="3.758" ry="2.871" style="fill:#68b42e;"/><circle cx="274.046" cy="444.658" r="3.196" style="fill:#68b42e;"/><ellipse cx="217.221" cy="444.398" rx="3.665" ry="4.754" style="fill:#68b42e;"/><circle cx="251.957" cy="372.915" r="3.174" style="fill:#68b42e;"/><ellipse cx="252.627" cy="388.339" rx="3.131" ry="2.59" style="fill:#68b42e;"/><circle cx="252.7" cy="309.216" r="2.59" style="fill:#68b42e;"/><ellipse cx="251.812" cy="294.139" rx="3.477" ry="2.467" style="fill:#68b42e;"/><ellipse cx="198.04" cy="294.904" rx="3.758" ry="2.503" style="fill:#68b42e;"/><ellipse cx="197.614" cy="276.076" rx="3.333" ry="2.734" style="fill:#68b42e;"/><ellipse cx="201.668" cy="490.812" rx="6.666" ry="4.812" style="fill:#68b42e;"/><ellipse cx="171.081" cy="214.815" rx="3.167" ry="5.367" style="fill:#68b42e;"/></g><g id="text"><text x="473.099px" y="336.896px" style="font-family:'ArialMT', 'Arial', sans-serif;font-size:8.657px;fill:#1d1d1b;">TP1</text><text x="409.703px" y="470.52px" style="font-family:'ArialMT', 'Arial', sans-serif;font-size:8.657px;fill:#1d1d1b;">TP31</text><text x="228.742px" y="464.539px" style="font-family:'ArialMT', 'Arial', sans-serif;font-size:8.657px;fill:#1d1d1b;">TP301</text><text x="281.187px" y="466.949px" style="font-family:'ArialMT', 'Arial', sans-serif;font-size:8.657px;fill:#1d1d1b;">TP32</text><text x="213.196px" y="343.915px" style="font-family:'ArialMT', 'Arial', sans-serif;font-size:8.657px;fill:#1d1d1b;">TP2</text></g></g></svg>