<?xml version="1.0" encoding="UTF-8" standalone="no"?>
<!DOCTYPE svg PUBLIC "-//W3C//DTD SVG 1.1//EN" "http://www.w3.org/Graphics/SVG/1.1/DTD/svg11.dtd">
<svg width="100%" height="100%" viewBox="0 0 32 32" version="1.1" xmlns="http://www.w3.org/2000/svg" xmlns:xlink="http://www.w3.org/1999/xlink" xml:space="preserve" xmlns:serif="http://www.serif.com/" style="fill-rule:evenodd;clip-rule:evenodd;stroke-linecap:round;stroke-linejoin:round;">
    <rect id="food" x="-0" y="0" width="32" height="32" style="fill:none;"/>
    <clipPath id="_clip1">
        <rect id="food1" serif:id="food" x="-0" y="0" width="32" height="32"/>
    </clipPath>
    <g clip-path="url(#_clip1)">
        <circle cx="16" cy="16" r="16" style="fill:#ff7043;"/>
        <path d="M16,0c8.831,0 16,7.169 16,16c-0,8.831 -7.169,16 -16,16c-8.831,0 -16,-7.169 -16,-16c-0,-8.831 7.169,-16 16,-16Zm-0,3c-7.175,0 -13,5.825 -13,13c-0,7.175 5.825,13 13,13c7.175,0 13,-5.825 13,-13c-0,-7.175 -5.825,-13 -13,-13Z" style="fill-opacity:0.28;"/>
        <g>
            <path d="M8,15l16,0c0.549,0 1,0.451 1,1l-0,0.5c-0,1.5 -2.517,5.573 -4,6.5l-0,1c-0,0.549 -0.451,1 -1,1l-8,0c-0.549,0 -1,-0.451 -1,-1l-0,-1c-1.687,-1.054 -4,-5 -4,-6.5l-0,-0.5c-0,-0.549 0.451,-1 1,-1Z" style="fill:none;fill-rule:nonzero;stroke:#fff;stroke-width:2px;"/>
            <path d="M16,8c-0.642,0.461 -1.017,1.21 -1,2c-0.017,0.79 0.358,1.539 1,2" style="fill:none;fill-rule:nonzero;stroke:#fff;stroke-width:2px;"/>
            <path d="M20,8c-0.642,0.461 -1.017,1.21 -1,2c-0.017,0.79 0.358,1.539 1,2" style="fill:none;fill-rule:nonzero;stroke:#fff;stroke-width:2px;"/>
            <path d="M12,8c-0.642,0.461 -1.017,1.21 -1,2c-0.017,0.79 0.358,1.539 1,2" style="fill:none;fill-rule:nonzero;stroke:#fff;stroke-width:2px;"/>
        </g>
    </g>
</svg>
